<mxfile host="app.diagrams.net" agent="Mozilla/5.0 (Windows NT 10.0; Win64; x64) AppleWebKit/537.36 (KHTML, like Gecko) Chrome/136.0.0.0 Safari/537.36" version="27.0.4">
  <diagram name="Página-1" id="wU58etXfz-hKI9RDVXUX">
    <mxGraphModel dx="2430" dy="971" grid="0" gridSize="10" guides="1" tooltips="1" connect="1" arrows="1" fold="1" page="1" pageScale="1" pageWidth="827" pageHeight="1169" math="0" shadow="0">
      <root>
        <mxCell id="0" />
        <mxCell id="1" parent="0" />
        <mxCell id="Jp8yfKyTnRDQH-Kfa9AB-219" value="" style="verticalLabelPosition=bottom;verticalAlign=top;html=1;shape=mxgraph.basic.rect;fillColor2=none;strokeWidth=1;size=20;indent=5;" vertex="1" parent="1">
          <mxGeometry x="1675" y="36.5" width="786" height="432" as="geometry" />
        </mxCell>
        <mxCell id="Jp8yfKyTnRDQH-Kfa9AB-218" value="" style="verticalLabelPosition=bottom;verticalAlign=top;html=1;shape=mxgraph.basic.rect;fillColor2=none;strokeWidth=1;size=20;indent=5;" vertex="1" parent="1">
          <mxGeometry x="839" y="41" width="786" height="432" as="geometry" />
        </mxCell>
        <mxCell id="Jp8yfKyTnRDQH-Kfa9AB-217" value="" style="verticalLabelPosition=bottom;verticalAlign=top;html=1;shape=mxgraph.basic.rect;fillColor2=none;strokeWidth=1;size=20;indent=5;" vertex="1" parent="1">
          <mxGeometry x="26" y="34" width="786" height="432" as="geometry" />
        </mxCell>
        <mxCell id="Y-8XzN2pI9Ohs8zJ8uPt-7" value="" style="verticalLabelPosition=bottom;verticalAlign=top;html=1;shape=mxgraph.basic.rect;fillColor2=none;strokeWidth=1;size=20;indent=5;" parent="1" vertex="1">
          <mxGeometry x="47" y="51" width="738" height="18" as="geometry" />
        </mxCell>
        <mxCell id="Jp8yfKyTnRDQH-Kfa9AB-1" value="cockpit.juntos.com" style="text;html=1;align=center;verticalAlign=middle;resizable=0;points=[];autosize=1;strokeColor=none;fillColor=none;" vertex="1" parent="1">
          <mxGeometry x="44" y="47" width="117" height="26" as="geometry" />
        </mxCell>
        <mxCell id="Jp8yfKyTnRDQH-Kfa9AB-2" value="" style="rounded=0;whiteSpace=wrap;html=1;" vertex="1" parent="1">
          <mxGeometry x="49" y="76" width="19" height="353" as="geometry" />
        </mxCell>
        <mxCell id="Jp8yfKyTnRDQH-Kfa9AB-6" value="&lt;h1 style=&quot;margin-top: 0px;&quot;&gt;Bulk Uploads&lt;/h1&gt;" style="text;html=1;whiteSpace=wrap;overflow=hidden;rounded=0;" vertex="1" parent="1">
          <mxGeometry x="81" y="79" width="180" height="41" as="geometry" />
        </mxCell>
        <mxCell id="Jp8yfKyTnRDQH-Kfa9AB-8" value="Cockpit Users" style="rounded=1;whiteSpace=wrap;html=1;" vertex="1" parent="1">
          <mxGeometry x="89" y="142" width="146" height="22" as="geometry" />
        </mxCell>
        <mxCell id="Jp8yfKyTnRDQH-Kfa9AB-11" value="Entity" style="text;html=1;align=center;verticalAlign=middle;whiteSpace=wrap;rounded=0;" vertex="1" parent="1">
          <mxGeometry x="81" y="117" width="60" height="30" as="geometry" />
        </mxCell>
        <mxCell id="Jp8yfKyTnRDQH-Kfa9AB-12" value="" style="html=1;verticalLabelPosition=bottom;labelBackgroundColor=#ffffff;verticalAlign=top;shadow=0;dashed=0;strokeWidth=2;shape=mxgraph.ios7.misc.down;strokeColor=#0080f0;" vertex="1" parent="1">
          <mxGeometry x="214" y="150" width="12" height="6" as="geometry" />
        </mxCell>
        <mxCell id="Jp8yfKyTnRDQH-Kfa9AB-14" value="Tenant" style="text;html=1;align=center;verticalAlign=middle;whiteSpace=wrap;rounded=0;" vertex="1" parent="1">
          <mxGeometry x="248" y="117" width="60" height="30" as="geometry" />
        </mxCell>
        <mxCell id="Jp8yfKyTnRDQH-Kfa9AB-15" value="DA Nova Geração" style="rounded=1;whiteSpace=wrap;html=1;" vertex="1" parent="1">
          <mxGeometry x="261" y="142" width="146" height="22" as="geometry" />
        </mxCell>
        <mxCell id="Jp8yfKyTnRDQH-Kfa9AB-17" value="" style="html=1;verticalLabelPosition=bottom;labelBackgroundColor=#ffffff;verticalAlign=top;shadow=0;dashed=0;strokeWidth=2;shape=mxgraph.ios7.misc.down;strokeColor=#0080f0;" vertex="1" parent="1">
          <mxGeometry x="389" y="150" width="12" height="6" as="geometry" />
        </mxCell>
        <mxCell id="Jp8yfKyTnRDQH-Kfa9AB-18" value="Country" style="text;html=1;align=center;verticalAlign=middle;whiteSpace=wrap;rounded=0;" vertex="1" parent="1">
          <mxGeometry x="416" y="114" width="60" height="30" as="geometry" />
        </mxCell>
        <mxCell id="Jp8yfKyTnRDQH-Kfa9AB-19" value="Brasil" style="rounded=1;whiteSpace=wrap;html=1;" vertex="1" parent="1">
          <mxGeometry x="423" y="142" width="146" height="22" as="geometry" />
        </mxCell>
        <mxCell id="Jp8yfKyTnRDQH-Kfa9AB-20" value="" style="html=1;verticalLabelPosition=bottom;labelBackgroundColor=#ffffff;verticalAlign=top;shadow=0;dashed=0;strokeWidth=2;shape=mxgraph.ios7.misc.down;strokeColor=#0080f0;" vertex="1" parent="1">
          <mxGeometry x="549" y="150" width="12" height="6" as="geometry" />
        </mxCell>
        <mxCell id="Jp8yfKyTnRDQH-Kfa9AB-31" value="" style="verticalLabelPosition=bottom;verticalAlign=top;html=1;shape=mxgraph.basic.rect;fillColor2=none;strokeWidth=1;size=20;indent=5;" vertex="1" parent="1">
          <mxGeometry x="-797" y="30" width="786" height="432" as="geometry" />
        </mxCell>
        <mxCell id="Jp8yfKyTnRDQH-Kfa9AB-32" value="" style="verticalLabelPosition=bottom;verticalAlign=top;html=1;shape=mxgraph.basic.rect;fillColor2=none;strokeWidth=1;size=20;indent=5;" vertex="1" parent="1">
          <mxGeometry x="-780" y="51" width="738" height="18" as="geometry" />
        </mxCell>
        <mxCell id="Jp8yfKyTnRDQH-Kfa9AB-33" value="cockpit.juntos.com" style="text;html=1;align=center;verticalAlign=middle;resizable=0;points=[];autosize=1;strokeColor=none;fillColor=none;" vertex="1" parent="1">
          <mxGeometry x="-783" y="47" width="117" height="26" as="geometry" />
        </mxCell>
        <mxCell id="Jp8yfKyTnRDQH-Kfa9AB-34" value="" style="rounded=0;whiteSpace=wrap;html=1;" vertex="1" parent="1">
          <mxGeometry x="-778" y="76" width="19" height="364" as="geometry" />
        </mxCell>
        <mxCell id="Jp8yfKyTnRDQH-Kfa9AB-35" value="&lt;h1 style=&quot;margin-top: 0px;&quot;&gt;Bulk Uploads&lt;/h1&gt;" style="text;html=1;whiteSpace=wrap;overflow=hidden;rounded=0;" vertex="1" parent="1">
          <mxGeometry x="-746" y="79" width="180" height="41" as="geometry" />
        </mxCell>
        <mxCell id="Jp8yfKyTnRDQH-Kfa9AB-36" value="" style="rounded=1;whiteSpace=wrap;html=1;" vertex="1" parent="1">
          <mxGeometry x="-389" y="256" width="259" height="157" as="geometry" />
        </mxCell>
        <mxCell id="Jp8yfKyTnRDQH-Kfa9AB-37" value="Products" style="rounded=1;whiteSpace=wrap;html=1;" vertex="1" parent="1">
          <mxGeometry x="-738" y="142" width="146" height="22" as="geometry" />
        </mxCell>
        <mxCell id="Jp8yfKyTnRDQH-Kfa9AB-38" value="Advisor" style="rounded=1;whiteSpace=wrap;html=1;" vertex="1" parent="1">
          <mxGeometry x="-582" y="142" width="146" height="22" as="geometry" />
        </mxCell>
        <mxCell id="Jp8yfKyTnRDQH-Kfa9AB-39" value="Entity" style="text;html=1;align=center;verticalAlign=middle;whiteSpace=wrap;rounded=0;" vertex="1" parent="1">
          <mxGeometry x="-746" y="117" width="60" height="30" as="geometry" />
        </mxCell>
        <mxCell id="Jp8yfKyTnRDQH-Kfa9AB-40" value="" style="html=1;verticalLabelPosition=bottom;labelBackgroundColor=#ffffff;verticalAlign=top;shadow=0;dashed=0;strokeWidth=2;shape=mxgraph.ios7.misc.down;strokeColor=#0080f0;" vertex="1" parent="1">
          <mxGeometry x="-613" y="150" width="12" height="6" as="geometry" />
        </mxCell>
        <mxCell id="Jp8yfKyTnRDQH-Kfa9AB-41" value="Tenant" style="text;html=1;align=center;verticalAlign=middle;whiteSpace=wrap;rounded=0;" vertex="1" parent="1">
          <mxGeometry x="-584" y="117" width="60" height="30" as="geometry" />
        </mxCell>
        <mxCell id="Jp8yfKyTnRDQH-Kfa9AB-44" value="" style="html=1;verticalLabelPosition=bottom;labelBackgroundColor=#ffffff;verticalAlign=top;shadow=0;dashed=0;strokeWidth=2;shape=mxgraph.ios7.misc.down;strokeColor=#0080f0;" vertex="1" parent="1">
          <mxGeometry x="-454" y="150" width="12" height="6" as="geometry" />
        </mxCell>
        <mxCell id="Jp8yfKyTnRDQH-Kfa9AB-46" value="Country" style="text;html=1;align=center;verticalAlign=middle;whiteSpace=wrap;rounded=0;" vertex="1" parent="1">
          <mxGeometry x="-421" y="117" width="60" height="30" as="geometry" />
        </mxCell>
        <mxCell id="Jp8yfKyTnRDQH-Kfa9AB-47" value="Mexico" style="rounded=1;whiteSpace=wrap;html=1;" vertex="1" parent="1">
          <mxGeometry x="-413" y="142" width="146" height="22" as="geometry" />
        </mxCell>
        <mxCell id="Jp8yfKyTnRDQH-Kfa9AB-48" value="" style="html=1;verticalLabelPosition=bottom;labelBackgroundColor=#ffffff;verticalAlign=top;shadow=0;dashed=0;strokeWidth=2;shape=mxgraph.ios7.misc.down;strokeColor=#0080f0;" vertex="1" parent="1">
          <mxGeometry x="-290" y="150" width="12" height="6" as="geometry" />
        </mxCell>
        <mxCell id="Jp8yfKyTnRDQH-Kfa9AB-50" value="&lt;font style=&quot;font-size: 18px;&quot;&gt;Insert File&lt;/font&gt;" style="text;html=1;align=center;verticalAlign=middle;whiteSpace=wrap;rounded=0;" vertex="1" parent="1">
          <mxGeometry x="-374" y="266" width="96" height="24" as="geometry" />
        </mxCell>
        <mxCell id="Jp8yfKyTnRDQH-Kfa9AB-51" value="&lt;font style=&quot;font-size: 14px;&quot;&gt;Drag and drop&lt;/font&gt;" style="text;html=1;align=center;verticalAlign=middle;whiteSpace=wrap;rounded=0;" vertex="1" parent="1">
          <mxGeometry x="-367" y="379" width="96" height="24" as="geometry" />
        </mxCell>
        <mxCell id="Jp8yfKyTnRDQH-Kfa9AB-52" value="&lt;font style=&quot;font-size: 14px;&quot;&gt;Search&lt;/font&gt;" style="text;html=1;align=center;verticalAlign=middle;whiteSpace=wrap;rounded=0;" vertex="1" parent="1">
          <mxGeometry x="-232" y="382" width="96" height="24" as="geometry" />
        </mxCell>
        <mxCell id="Jp8yfKyTnRDQH-Kfa9AB-53" value="" style="rounded=1;whiteSpace=wrap;html=1;" vertex="1" parent="1">
          <mxGeometry x="-738" y="257" width="311" height="159" as="geometry" />
        </mxCell>
        <mxCell id="Jp8yfKyTnRDQH-Kfa9AB-54" value="&lt;font style=&quot;font-size: 18px;&quot;&gt;File Instructions&lt;/font&gt;" style="text;html=1;align=center;verticalAlign=middle;whiteSpace=wrap;rounded=0;" vertex="1" parent="1">
          <mxGeometry x="-731" y="271" width="157" height="14" as="geometry" />
        </mxCell>
        <mxCell id="Jp8yfKyTnRDQH-Kfa9AB-55" value="&lt;font&gt;&lt;u style=&quot;&quot;&gt;Download file example&lt;/u&gt;&lt;/font&gt;" style="text;html=1;align=center;verticalAlign=middle;whiteSpace=wrap;rounded=0;" vertex="1" parent="1">
          <mxGeometry x="-579" y="269" width="162" height="18" as="geometry" />
        </mxCell>
        <mxCell id="Jp8yfKyTnRDQH-Kfa9AB-56" value="&lt;ul&gt;&lt;li&gt;&lt;span style=&quot;font-family: &amp;quot;Open Sans&amp;quot;, Arial, sans-serif; background-color: rgb(255, 255, 255);&quot;&gt;&lt;font style=&quot;font-size: 11px;&quot;&gt;Business Rule 1&lt;/font&gt;&lt;/span&gt;&lt;/li&gt;&lt;li&gt;&lt;span style=&quot;font-family: &amp;quot;Open Sans&amp;quot;, Arial, sans-serif; background-color: rgb(255, 255, 255);&quot;&gt;&lt;font style=&quot;font-size: 11px;&quot;&gt;Business Rule 2&lt;/font&gt;&lt;/span&gt;&lt;/li&gt;&lt;li&gt;&lt;span style=&quot;background-color: rgb(255, 255, 255);&quot;&gt;&lt;font face=&quot;Helvetica&quot;&gt;&lt;span style=&quot;text-align: justify;&quot;&gt;Lorem ipsum dolor sit amet, consectetur adipiscing elit.&amp;nbsp;&lt;/span&gt;&lt;/font&gt;&lt;/span&gt;&lt;/li&gt;&lt;/ul&gt;" style="text;html=1;align=left;verticalAlign=middle;whiteSpace=wrap;rounded=0;" vertex="1" parent="1">
          <mxGeometry x="-731" y="304" width="293" height="78" as="geometry" />
        </mxCell>
        <mxCell id="Jp8yfKyTnRDQH-Kfa9AB-86" value="" style="verticalLabelPosition=bottom;verticalAlign=top;html=1;shape=mxgraph.basic.rect;fillColor2=none;strokeWidth=1;size=20;indent=5;" vertex="1" parent="1">
          <mxGeometry x="863" y="51" width="738" height="18" as="geometry" />
        </mxCell>
        <mxCell id="Jp8yfKyTnRDQH-Kfa9AB-87" value="cockpit.juntos.com" style="text;html=1;align=center;verticalAlign=middle;resizable=0;points=[];autosize=1;strokeColor=none;fillColor=none;" vertex="1" parent="1">
          <mxGeometry x="860" y="47" width="117" height="26" as="geometry" />
        </mxCell>
        <mxCell id="Jp8yfKyTnRDQH-Kfa9AB-88" value="" style="rounded=0;whiteSpace=wrap;html=1;" vertex="1" parent="1">
          <mxGeometry x="865" y="76" width="19" height="364" as="geometry" />
        </mxCell>
        <mxCell id="Jp8yfKyTnRDQH-Kfa9AB-89" value="&lt;h1 style=&quot;margin-top: 0px;&quot;&gt;Bulk Uploads&lt;/h1&gt;" style="text;html=1;whiteSpace=wrap;overflow=hidden;rounded=0;" vertex="1" parent="1">
          <mxGeometry x="897" y="79" width="180" height="41" as="geometry" />
        </mxCell>
        <mxCell id="Jp8yfKyTnRDQH-Kfa9AB-91" value="Promotions" style="rounded=1;whiteSpace=wrap;html=1;" vertex="1" parent="1">
          <mxGeometry x="905" y="142" width="146" height="22" as="geometry" />
        </mxCell>
        <mxCell id="Jp8yfKyTnRDQH-Kfa9AB-92" value="Entity" style="text;html=1;align=center;verticalAlign=middle;whiteSpace=wrap;rounded=0;" vertex="1" parent="1">
          <mxGeometry x="897" y="117" width="60" height="30" as="geometry" />
        </mxCell>
        <mxCell id="Jp8yfKyTnRDQH-Kfa9AB-93" value="" style="html=1;verticalLabelPosition=bottom;labelBackgroundColor=#ffffff;verticalAlign=top;shadow=0;dashed=0;strokeWidth=2;shape=mxgraph.ios7.misc.down;strokeColor=#0080f0;" vertex="1" parent="1">
          <mxGeometry x="1030" y="150" width="12" height="6" as="geometry" />
        </mxCell>
        <mxCell id="Jp8yfKyTnRDQH-Kfa9AB-94" value="Tenant" style="text;html=1;align=center;verticalAlign=middle;whiteSpace=wrap;rounded=0;" vertex="1" parent="1">
          <mxGeometry x="1064" y="117" width="60" height="30" as="geometry" />
        </mxCell>
        <mxCell id="Jp8yfKyTnRDQH-Kfa9AB-95" value="Juntos +" style="rounded=1;whiteSpace=wrap;html=1;" vertex="1" parent="1">
          <mxGeometry x="1077" y="142" width="146" height="22" as="geometry" />
        </mxCell>
        <mxCell id="Jp8yfKyTnRDQH-Kfa9AB-96" value="" style="html=1;verticalLabelPosition=bottom;labelBackgroundColor=#ffffff;verticalAlign=top;shadow=0;dashed=0;strokeWidth=2;shape=mxgraph.ios7.misc.down;strokeColor=#0080f0;" vertex="1" parent="1">
          <mxGeometry x="1205" y="150" width="12" height="6" as="geometry" />
        </mxCell>
        <mxCell id="Jp8yfKyTnRDQH-Kfa9AB-97" value="Country" style="text;html=1;align=center;verticalAlign=middle;whiteSpace=wrap;rounded=0;" vertex="1" parent="1">
          <mxGeometry x="1232" y="114" width="60" height="30" as="geometry" />
        </mxCell>
        <mxCell id="Jp8yfKyTnRDQH-Kfa9AB-98" value="Colombia" style="rounded=1;whiteSpace=wrap;html=1;" vertex="1" parent="1">
          <mxGeometry x="1239" y="142" width="146" height="22" as="geometry" />
        </mxCell>
        <mxCell id="Jp8yfKyTnRDQH-Kfa9AB-99" value="" style="html=1;verticalLabelPosition=bottom;labelBackgroundColor=#ffffff;verticalAlign=top;shadow=0;dashed=0;strokeWidth=2;shape=mxgraph.ios7.misc.down;strokeColor=#0080f0;" vertex="1" parent="1">
          <mxGeometry x="1365" y="150" width="12" height="6" as="geometry" />
        </mxCell>
        <mxCell id="Jp8yfKyTnRDQH-Kfa9AB-109" value="" style="verticalLabelPosition=bottom;verticalAlign=top;html=1;shape=mxgraph.basic.rect;fillColor2=none;strokeWidth=1;size=20;indent=5;" vertex="1" parent="1">
          <mxGeometry x="1694" y="45" width="738" height="18" as="geometry" />
        </mxCell>
        <mxCell id="Jp8yfKyTnRDQH-Kfa9AB-110" value="cockpit.juntos.com" style="text;html=1;align=center;verticalAlign=middle;resizable=0;points=[];autosize=1;strokeColor=none;fillColor=none;" vertex="1" parent="1">
          <mxGeometry x="1691" y="41" width="117" height="26" as="geometry" />
        </mxCell>
        <mxCell id="Jp8yfKyTnRDQH-Kfa9AB-111" value="" style="rounded=0;whiteSpace=wrap;html=1;" vertex="1" parent="1">
          <mxGeometry x="1696" y="70" width="19" height="337" as="geometry" />
        </mxCell>
        <mxCell id="Jp8yfKyTnRDQH-Kfa9AB-112" value="&lt;h1 style=&quot;margin-top: 0px;&quot;&gt;Bulk Uploads&lt;/h1&gt;" style="text;html=1;whiteSpace=wrap;overflow=hidden;rounded=0;" vertex="1" parent="1">
          <mxGeometry x="1728" y="73" width="180" height="41" as="geometry" />
        </mxCell>
        <mxCell id="Jp8yfKyTnRDQH-Kfa9AB-114" value="Customers" style="rounded=1;whiteSpace=wrap;html=1;" vertex="1" parent="1">
          <mxGeometry x="1736" y="136" width="146" height="22" as="geometry" />
        </mxCell>
        <mxCell id="Jp8yfKyTnRDQH-Kfa9AB-115" value="Entity" style="text;html=1;align=center;verticalAlign=middle;whiteSpace=wrap;rounded=0;" vertex="1" parent="1">
          <mxGeometry x="1728" y="111" width="60" height="30" as="geometry" />
        </mxCell>
        <mxCell id="Jp8yfKyTnRDQH-Kfa9AB-116" value="" style="html=1;verticalLabelPosition=bottom;labelBackgroundColor=#ffffff;verticalAlign=top;shadow=0;dashed=0;strokeWidth=2;shape=mxgraph.ios7.misc.down;strokeColor=#0080f0;" vertex="1" parent="1">
          <mxGeometry x="1861" y="144" width="12" height="6" as="geometry" />
        </mxCell>
        <mxCell id="Jp8yfKyTnRDQH-Kfa9AB-117" value="Tenant" style="text;html=1;align=center;verticalAlign=middle;whiteSpace=wrap;rounded=0;" vertex="1" parent="1">
          <mxGeometry x="1895" y="111" width="60" height="30" as="geometry" />
        </mxCell>
        <mxCell id="Jp8yfKyTnRDQH-Kfa9AB-118" value="Venezuela" style="rounded=1;whiteSpace=wrap;html=1;" vertex="1" parent="1">
          <mxGeometry x="1908" y="136" width="146" height="22" as="geometry" />
        </mxCell>
        <mxCell id="Jp8yfKyTnRDQH-Kfa9AB-119" value="" style="html=1;verticalLabelPosition=bottom;labelBackgroundColor=#ffffff;verticalAlign=top;shadow=0;dashed=0;strokeWidth=2;shape=mxgraph.ios7.misc.down;strokeColor=#0080f0;" vertex="1" parent="1">
          <mxGeometry x="2036" y="144" width="12" height="6" as="geometry" />
        </mxCell>
        <mxCell id="Jp8yfKyTnRDQH-Kfa9AB-120" value="Country" style="text;html=1;align=center;verticalAlign=middle;whiteSpace=wrap;rounded=0;" vertex="1" parent="1">
          <mxGeometry x="2063" y="108" width="60" height="30" as="geometry" />
        </mxCell>
        <mxCell id="Jp8yfKyTnRDQH-Kfa9AB-121" value="Venezuela" style="rounded=1;whiteSpace=wrap;html=1;" vertex="1" parent="1">
          <mxGeometry x="2070" y="136" width="146" height="22" as="geometry" />
        </mxCell>
        <mxCell id="Jp8yfKyTnRDQH-Kfa9AB-122" value="" style="html=1;verticalLabelPosition=bottom;labelBackgroundColor=#ffffff;verticalAlign=top;shadow=0;dashed=0;strokeWidth=2;shape=mxgraph.ios7.misc.down;strokeColor=#0080f0;" vertex="1" parent="1">
          <mxGeometry x="2196" y="144" width="12" height="6" as="geometry" />
        </mxCell>
        <mxCell id="Jp8yfKyTnRDQH-Kfa9AB-131" value="" style="verticalLabelPosition=bottom;verticalAlign=top;html=1;shape=mxgraph.basic.rect;fillColor2=none;strokeWidth=1;size=20;indent=5;" vertex="1" parent="1">
          <mxGeometry x="-790" y="619" width="767" height="394" as="geometry" />
        </mxCell>
        <mxCell id="Jp8yfKyTnRDQH-Kfa9AB-132" value="" style="verticalLabelPosition=bottom;verticalAlign=top;html=1;shape=mxgraph.basic.rect;fillColor2=none;strokeWidth=1;size=20;indent=5;" vertex="1" parent="1">
          <mxGeometry x="-773" y="632" width="738" height="18" as="geometry" />
        </mxCell>
        <mxCell id="Jp8yfKyTnRDQH-Kfa9AB-133" value="cockpit.juntos.com" style="text;html=1;align=center;verticalAlign=middle;resizable=0;points=[];autosize=1;strokeColor=none;fillColor=none;" vertex="1" parent="1">
          <mxGeometry x="-776" y="628" width="117" height="26" as="geometry" />
        </mxCell>
        <mxCell id="Jp8yfKyTnRDQH-Kfa9AB-134" value="" style="rounded=0;whiteSpace=wrap;html=1;" vertex="1" parent="1">
          <mxGeometry x="-771" y="657" width="19" height="337" as="geometry" />
        </mxCell>
        <mxCell id="Jp8yfKyTnRDQH-Kfa9AB-135" value="&lt;h1 style=&quot;margin-top: 0px;&quot;&gt;Bulk Uploads&lt;/h1&gt;" style="text;html=1;whiteSpace=wrap;overflow=hidden;rounded=0;" vertex="1" parent="1">
          <mxGeometry x="-739" y="660" width="180" height="41" as="geometry" />
        </mxCell>
        <mxCell id="Jp8yfKyTnRDQH-Kfa9AB-156" value="" style="edgeStyle=orthogonalEdgeStyle;rounded=0;orthogonalLoop=1;jettySize=auto;html=1;" edge="1" parent="1" source="Jp8yfKyTnRDQH-Kfa9AB-136" target="Jp8yfKyTnRDQH-Kfa9AB-155">
          <mxGeometry relative="1" as="geometry" />
        </mxCell>
        <mxCell id="Jp8yfKyTnRDQH-Kfa9AB-136" value="" style="rounded=1;whiteSpace=wrap;html=1;" vertex="1" parent="1">
          <mxGeometry x="-570.5" y="823.5" width="259" height="157" as="geometry" />
        </mxCell>
        <mxCell id="Jp8yfKyTnRDQH-Kfa9AB-137" value="Products" style="rounded=1;whiteSpace=wrap;html=1;" vertex="1" parent="1">
          <mxGeometry x="-731" y="723" width="146" height="22" as="geometry" />
        </mxCell>
        <mxCell id="Jp8yfKyTnRDQH-Kfa9AB-138" value="Advisor" style="rounded=1;whiteSpace=wrap;html=1;" vertex="1" parent="1">
          <mxGeometry x="-575" y="723" width="146" height="22" as="geometry" />
        </mxCell>
        <mxCell id="Jp8yfKyTnRDQH-Kfa9AB-139" value="Entity" style="text;html=1;align=center;verticalAlign=middle;whiteSpace=wrap;rounded=0;" vertex="1" parent="1">
          <mxGeometry x="-739" y="698" width="60" height="30" as="geometry" />
        </mxCell>
        <mxCell id="Jp8yfKyTnRDQH-Kfa9AB-140" value="" style="html=1;verticalLabelPosition=bottom;labelBackgroundColor=#ffffff;verticalAlign=top;shadow=0;dashed=0;strokeWidth=2;shape=mxgraph.ios7.misc.down;strokeColor=#0080f0;" vertex="1" parent="1">
          <mxGeometry x="-606" y="731" width="12" height="6" as="geometry" />
        </mxCell>
        <mxCell id="Jp8yfKyTnRDQH-Kfa9AB-141" value="Tenant" style="text;html=1;align=center;verticalAlign=middle;whiteSpace=wrap;rounded=0;" vertex="1" parent="1">
          <mxGeometry x="-577" y="698" width="60" height="30" as="geometry" />
        </mxCell>
        <mxCell id="Jp8yfKyTnRDQH-Kfa9AB-142" value="" style="html=1;verticalLabelPosition=bottom;labelBackgroundColor=#ffffff;verticalAlign=top;shadow=0;dashed=0;strokeWidth=2;shape=mxgraph.ios7.misc.down;strokeColor=#0080f0;" vertex="1" parent="1">
          <mxGeometry x="-447" y="731" width="12" height="6" as="geometry" />
        </mxCell>
        <mxCell id="Jp8yfKyTnRDQH-Kfa9AB-143" value="Country" style="text;html=1;align=center;verticalAlign=middle;whiteSpace=wrap;rounded=0;" vertex="1" parent="1">
          <mxGeometry x="-414" y="698" width="60" height="30" as="geometry" />
        </mxCell>
        <mxCell id="Jp8yfKyTnRDQH-Kfa9AB-144" value="Mexico" style="rounded=1;whiteSpace=wrap;html=1;" vertex="1" parent="1">
          <mxGeometry x="-406" y="723" width="146" height="22" as="geometry" />
        </mxCell>
        <mxCell id="Jp8yfKyTnRDQH-Kfa9AB-145" value="" style="html=1;verticalLabelPosition=bottom;labelBackgroundColor=#ffffff;verticalAlign=top;shadow=0;dashed=0;strokeWidth=2;shape=mxgraph.ios7.misc.down;strokeColor=#0080f0;" vertex="1" parent="1">
          <mxGeometry x="-283" y="731" width="12" height="6" as="geometry" />
        </mxCell>
        <mxCell id="Jp8yfKyTnRDQH-Kfa9AB-147" value="&lt;font style=&quot;font-size: 18px;&quot;&gt;Validating File&lt;/font&gt;" style="text;html=1;align=center;verticalAlign=middle;whiteSpace=wrap;rounded=0;" vertex="1" parent="1">
          <mxGeometry x="-561" y="835" width="144" height="24" as="geometry" />
        </mxCell>
        <mxCell id="Jp8yfKyTnRDQH-Kfa9AB-154" value="" style="html=1;verticalLabelPosition=bottom;labelBackgroundColor=#ffffff;verticalAlign=top;shadow=0;dashed=0;strokeWidth=2;shape=mxgraph.ios7.misc.loading_circle;" vertex="1" parent="1">
          <mxGeometry x="-473.5" y="872.5" width="65" height="59" as="geometry" />
        </mxCell>
        <mxCell id="Jp8yfKyTnRDQH-Kfa9AB-155" value="Format Validation" style="rounded=1;whiteSpace=wrap;html=1;" vertex="1" parent="1">
          <mxGeometry x="-244" y="886" width="148" height="32" as="geometry" />
        </mxCell>
        <mxCell id="Jp8yfKyTnRDQH-Kfa9AB-157" value="1" style="ellipse;whiteSpace=wrap;html=1;aspect=fixed;" vertex="1" parent="1">
          <mxGeometry x="-594" y="206" width="29" height="29" as="geometry" />
        </mxCell>
        <mxCell id="Jp8yfKyTnRDQH-Kfa9AB-158" value="" style="ellipse;whiteSpace=wrap;html=1;aspect=fixed;fillColor=#f5f5f5;fontColor=#333333;strokeColor=#666666;" vertex="1" parent="1">
          <mxGeometry x="-510" y="211" width="16" height="16" as="geometry" />
        </mxCell>
        <mxCell id="Jp8yfKyTnRDQH-Kfa9AB-162" value="" style="ellipse;whiteSpace=wrap;html=1;aspect=fixed;fillColor=#f5f5f5;fontColor=#333333;strokeColor=#666666;" vertex="1" parent="1">
          <mxGeometry x="-433" y="211" width="16" height="16" as="geometry" />
        </mxCell>
        <mxCell id="Jp8yfKyTnRDQH-Kfa9AB-163" value="" style="ellipse;whiteSpace=wrap;html=1;aspect=fixed;fillColor=#f5f5f5;fontColor=#333333;strokeColor=#666666;" vertex="1" parent="1">
          <mxGeometry x="-352" y="211" width="16" height="16" as="geometry" />
        </mxCell>
        <mxCell id="Jp8yfKyTnRDQH-Kfa9AB-164" value="" style="endArrow=none;html=1;rounded=0;" edge="1" parent="1">
          <mxGeometry width="50" height="50" relative="1" as="geometry">
            <mxPoint x="-674" y="220" as="sourcePoint" />
            <mxPoint x="-594" y="220" as="targetPoint" />
          </mxGeometry>
        </mxCell>
        <mxCell id="Jp8yfKyTnRDQH-Kfa9AB-165" value="" style="endArrow=none;html=1;rounded=0;" edge="1" parent="1">
          <mxGeometry width="50" height="50" relative="1" as="geometry">
            <mxPoint x="-565" y="218.33" as="sourcePoint" />
            <mxPoint x="-258" y="218" as="targetPoint" />
          </mxGeometry>
        </mxCell>
        <mxCell id="Jp8yfKyTnRDQH-Kfa9AB-166" value="&lt;font style=&quot;font-size: 18px;&quot;&gt;Upload File&lt;/font&gt;" style="text;html=1;align=center;verticalAlign=middle;whiteSpace=wrap;rounded=0;" vertex="1" parent="1">
          <mxGeometry x="-653" y="183" width="157" height="14" as="geometry" />
        </mxCell>
        <mxCell id="Jp8yfKyTnRDQH-Kfa9AB-168" value="" style="rounded=1;whiteSpace=wrap;html=1;" vertex="1" parent="1">
          <mxGeometry x="451" y="256" width="259" height="157" as="geometry" />
        </mxCell>
        <mxCell id="Jp8yfKyTnRDQH-Kfa9AB-169" value="" style="html=1;verticalLabelPosition=bottom;align=center;labelBackgroundColor=#ffffff;verticalAlign=top;strokeWidth=2;strokeColor=#0080F0;shadow=0;dashed=0;shape=mxgraph.ios7.icons.down;" vertex="1" parent="1">
          <mxGeometry x="562" y="310.5" width="46" height="48" as="geometry" />
        </mxCell>
        <mxCell id="Jp8yfKyTnRDQH-Kfa9AB-170" value="&lt;font style=&quot;font-size: 18px;&quot;&gt;Insert File&lt;/font&gt;" style="text;html=1;align=center;verticalAlign=middle;whiteSpace=wrap;rounded=0;" vertex="1" parent="1">
          <mxGeometry x="466" y="266" width="96" height="24" as="geometry" />
        </mxCell>
        <mxCell id="Jp8yfKyTnRDQH-Kfa9AB-171" value="&lt;font style=&quot;font-size: 14px;&quot;&gt;Drag and drop&lt;/font&gt;" style="text;html=1;align=center;verticalAlign=middle;whiteSpace=wrap;rounded=0;" vertex="1" parent="1">
          <mxGeometry x="473" y="379" width="96" height="24" as="geometry" />
        </mxCell>
        <mxCell id="Jp8yfKyTnRDQH-Kfa9AB-172" value="&lt;font style=&quot;font-size: 14px;&quot;&gt;Search&lt;/font&gt;" style="text;html=1;align=center;verticalAlign=middle;whiteSpace=wrap;rounded=0;" vertex="1" parent="1">
          <mxGeometry x="608" y="382" width="96" height="24" as="geometry" />
        </mxCell>
        <mxCell id="Jp8yfKyTnRDQH-Kfa9AB-173" value="" style="rounded=1;whiteSpace=wrap;html=1;" vertex="1" parent="1">
          <mxGeometry x="102" y="257" width="311" height="159" as="geometry" />
        </mxCell>
        <mxCell id="Jp8yfKyTnRDQH-Kfa9AB-174" value="&lt;font style=&quot;font-size: 18px;&quot;&gt;File Instructions&lt;/font&gt;" style="text;html=1;align=center;verticalAlign=middle;whiteSpace=wrap;rounded=0;" vertex="1" parent="1">
          <mxGeometry x="109" y="271" width="157" height="14" as="geometry" />
        </mxCell>
        <mxCell id="Jp8yfKyTnRDQH-Kfa9AB-175" value="&lt;font&gt;&lt;u style=&quot;&quot;&gt;Download file example&lt;/u&gt;&lt;/font&gt;" style="text;html=1;align=center;verticalAlign=middle;whiteSpace=wrap;rounded=0;" vertex="1" parent="1">
          <mxGeometry x="261" y="269" width="162" height="18" as="geometry" />
        </mxCell>
        <mxCell id="Jp8yfKyTnRDQH-Kfa9AB-176" value="&lt;ul&gt;&lt;li&gt;&lt;span style=&quot;font-family: &amp;quot;Open Sans&amp;quot;, Arial, sans-serif; background-color: rgb(255, 255, 255);&quot;&gt;&lt;font style=&quot;font-size: 11px;&quot;&gt;Business Rule 1&lt;/font&gt;&lt;/span&gt;&lt;/li&gt;&lt;li&gt;&lt;span style=&quot;font-family: &amp;quot;Open Sans&amp;quot;, Arial, sans-serif; background-color: rgb(255, 255, 255);&quot;&gt;&lt;font style=&quot;font-size: 11px;&quot;&gt;Business Rule 2&lt;/font&gt;&lt;/span&gt;&lt;/li&gt;&lt;li&gt;&lt;span style=&quot;background-color: rgb(255, 255, 255);&quot;&gt;&lt;font face=&quot;Helvetica&quot;&gt;&lt;span style=&quot;text-align: justify;&quot;&gt;Lorem ipsum dolor sit amet, consectetur adipiscing elit.&amp;nbsp;&lt;/span&gt;&lt;/font&gt;&lt;/span&gt;&lt;/li&gt;&lt;/ul&gt;" style="text;html=1;align=left;verticalAlign=middle;whiteSpace=wrap;rounded=0;" vertex="1" parent="1">
          <mxGeometry x="109" y="304" width="293" height="78" as="geometry" />
        </mxCell>
        <mxCell id="Jp8yfKyTnRDQH-Kfa9AB-177" value="1" style="ellipse;whiteSpace=wrap;html=1;aspect=fixed;" vertex="1" parent="1">
          <mxGeometry x="246" y="206" width="29" height="29" as="geometry" />
        </mxCell>
        <mxCell id="Jp8yfKyTnRDQH-Kfa9AB-178" value="" style="ellipse;whiteSpace=wrap;html=1;aspect=fixed;fillColor=#f5f5f5;fontColor=#333333;strokeColor=#666666;" vertex="1" parent="1">
          <mxGeometry x="330" y="211" width="16" height="16" as="geometry" />
        </mxCell>
        <mxCell id="Jp8yfKyTnRDQH-Kfa9AB-179" value="" style="ellipse;whiteSpace=wrap;html=1;aspect=fixed;fillColor=#f5f5f5;fontColor=#333333;strokeColor=#666666;" vertex="1" parent="1">
          <mxGeometry x="407" y="211" width="16" height="16" as="geometry" />
        </mxCell>
        <mxCell id="Jp8yfKyTnRDQH-Kfa9AB-180" value="" style="ellipse;whiteSpace=wrap;html=1;aspect=fixed;fillColor=#f5f5f5;fontColor=#333333;strokeColor=#666666;" vertex="1" parent="1">
          <mxGeometry x="488" y="211" width="16" height="16" as="geometry" />
        </mxCell>
        <mxCell id="Jp8yfKyTnRDQH-Kfa9AB-181" value="" style="endArrow=none;html=1;rounded=0;" edge="1" parent="1">
          <mxGeometry width="50" height="50" relative="1" as="geometry">
            <mxPoint x="166" y="220" as="sourcePoint" />
            <mxPoint x="246" y="220" as="targetPoint" />
          </mxGeometry>
        </mxCell>
        <mxCell id="Jp8yfKyTnRDQH-Kfa9AB-182" value="" style="endArrow=none;html=1;rounded=0;" edge="1" parent="1">
          <mxGeometry width="50" height="50" relative="1" as="geometry">
            <mxPoint x="275" y="218.33" as="sourcePoint" />
            <mxPoint x="582" y="218" as="targetPoint" />
          </mxGeometry>
        </mxCell>
        <mxCell id="Jp8yfKyTnRDQH-Kfa9AB-183" value="&lt;font style=&quot;font-size: 18px;&quot;&gt;Upload File&lt;/font&gt;" style="text;html=1;align=center;verticalAlign=middle;whiteSpace=wrap;rounded=0;" vertex="1" parent="1">
          <mxGeometry x="187" y="183" width="157" height="14" as="geometry" />
        </mxCell>
        <mxCell id="Jp8yfKyTnRDQH-Kfa9AB-184" value="" style="rounded=1;whiteSpace=wrap;html=1;" vertex="1" parent="1">
          <mxGeometry x="1265" y="253" width="259" height="157" as="geometry" />
        </mxCell>
        <mxCell id="Jp8yfKyTnRDQH-Kfa9AB-185" value="" style="html=1;verticalLabelPosition=bottom;align=center;labelBackgroundColor=#ffffff;verticalAlign=top;strokeWidth=2;strokeColor=#0080F0;shadow=0;dashed=0;shape=mxgraph.ios7.icons.down;" vertex="1" parent="1">
          <mxGeometry x="1376" y="307.5" width="46" height="48" as="geometry" />
        </mxCell>
        <mxCell id="Jp8yfKyTnRDQH-Kfa9AB-186" value="&lt;font style=&quot;font-size: 18px;&quot;&gt;Insert File&lt;/font&gt;" style="text;html=1;align=center;verticalAlign=middle;whiteSpace=wrap;rounded=0;" vertex="1" parent="1">
          <mxGeometry x="1280" y="263" width="96" height="24" as="geometry" />
        </mxCell>
        <mxCell id="Jp8yfKyTnRDQH-Kfa9AB-187" value="&lt;font style=&quot;font-size: 14px;&quot;&gt;Drag and drop&lt;/font&gt;" style="text;html=1;align=center;verticalAlign=middle;whiteSpace=wrap;rounded=0;" vertex="1" parent="1">
          <mxGeometry x="1287" y="376" width="96" height="24" as="geometry" />
        </mxCell>
        <mxCell id="Jp8yfKyTnRDQH-Kfa9AB-188" value="&lt;font style=&quot;font-size: 14px;&quot;&gt;Search&lt;/font&gt;" style="text;html=1;align=center;verticalAlign=middle;whiteSpace=wrap;rounded=0;" vertex="1" parent="1">
          <mxGeometry x="1422" y="379" width="96" height="24" as="geometry" />
        </mxCell>
        <mxCell id="Jp8yfKyTnRDQH-Kfa9AB-189" value="" style="rounded=1;whiteSpace=wrap;html=1;" vertex="1" parent="1">
          <mxGeometry x="916" y="254" width="311" height="159" as="geometry" />
        </mxCell>
        <mxCell id="Jp8yfKyTnRDQH-Kfa9AB-190" value="&lt;font style=&quot;font-size: 18px;&quot;&gt;File Instructions&lt;/font&gt;" style="text;html=1;align=center;verticalAlign=middle;whiteSpace=wrap;rounded=0;" vertex="1" parent="1">
          <mxGeometry x="923" y="268" width="157" height="14" as="geometry" />
        </mxCell>
        <mxCell id="Jp8yfKyTnRDQH-Kfa9AB-191" value="&lt;font&gt;&lt;u style=&quot;&quot;&gt;Download file example&lt;/u&gt;&lt;/font&gt;" style="text;html=1;align=center;verticalAlign=middle;whiteSpace=wrap;rounded=0;" vertex="1" parent="1">
          <mxGeometry x="1075" y="266" width="162" height="18" as="geometry" />
        </mxCell>
        <mxCell id="Jp8yfKyTnRDQH-Kfa9AB-192" value="&lt;ul&gt;&lt;li&gt;&lt;span style=&quot;font-family: &amp;quot;Open Sans&amp;quot;, Arial, sans-serif; background-color: rgb(255, 255, 255);&quot;&gt;&lt;font style=&quot;font-size: 11px;&quot;&gt;Business Rule 1&lt;/font&gt;&lt;/span&gt;&lt;/li&gt;&lt;li&gt;&lt;span style=&quot;font-family: &amp;quot;Open Sans&amp;quot;, Arial, sans-serif; background-color: rgb(255, 255, 255);&quot;&gt;&lt;font style=&quot;font-size: 11px;&quot;&gt;Business Rule 2&lt;/font&gt;&lt;/span&gt;&lt;/li&gt;&lt;li&gt;&lt;span style=&quot;background-color: rgb(255, 255, 255);&quot;&gt;&lt;font face=&quot;Helvetica&quot;&gt;&lt;span style=&quot;text-align: justify;&quot;&gt;Lorem ipsum dolor sit amet, consectetur adipiscing elit.&amp;nbsp;&lt;/span&gt;&lt;/font&gt;&lt;/span&gt;&lt;/li&gt;&lt;/ul&gt;" style="text;html=1;align=left;verticalAlign=middle;whiteSpace=wrap;rounded=0;" vertex="1" parent="1">
          <mxGeometry x="923" y="301" width="293" height="78" as="geometry" />
        </mxCell>
        <mxCell id="Jp8yfKyTnRDQH-Kfa9AB-193" value="1" style="ellipse;whiteSpace=wrap;html=1;aspect=fixed;" vertex="1" parent="1">
          <mxGeometry x="1060" y="203" width="29" height="29" as="geometry" />
        </mxCell>
        <mxCell id="Jp8yfKyTnRDQH-Kfa9AB-194" value="" style="ellipse;whiteSpace=wrap;html=1;aspect=fixed;fillColor=#f5f5f5;fontColor=#333333;strokeColor=#666666;" vertex="1" parent="1">
          <mxGeometry x="1144" y="208" width="16" height="16" as="geometry" />
        </mxCell>
        <mxCell id="Jp8yfKyTnRDQH-Kfa9AB-195" value="" style="ellipse;whiteSpace=wrap;html=1;aspect=fixed;fillColor=#f5f5f5;fontColor=#333333;strokeColor=#666666;" vertex="1" parent="1">
          <mxGeometry x="1221" y="208" width="16" height="16" as="geometry" />
        </mxCell>
        <mxCell id="Jp8yfKyTnRDQH-Kfa9AB-196" value="" style="ellipse;whiteSpace=wrap;html=1;aspect=fixed;fillColor=#f5f5f5;fontColor=#333333;strokeColor=#666666;" vertex="1" parent="1">
          <mxGeometry x="1302" y="208" width="16" height="16" as="geometry" />
        </mxCell>
        <mxCell id="Jp8yfKyTnRDQH-Kfa9AB-197" value="" style="endArrow=none;html=1;rounded=0;" edge="1" parent="1">
          <mxGeometry width="50" height="50" relative="1" as="geometry">
            <mxPoint x="980" y="217" as="sourcePoint" />
            <mxPoint x="1060" y="217" as="targetPoint" />
          </mxGeometry>
        </mxCell>
        <mxCell id="Jp8yfKyTnRDQH-Kfa9AB-198" value="" style="endArrow=none;html=1;rounded=0;" edge="1" parent="1">
          <mxGeometry width="50" height="50" relative="1" as="geometry">
            <mxPoint x="1089" y="215.33" as="sourcePoint" />
            <mxPoint x="1396" y="215" as="targetPoint" />
          </mxGeometry>
        </mxCell>
        <mxCell id="Jp8yfKyTnRDQH-Kfa9AB-199" value="&lt;font style=&quot;font-size: 18px;&quot;&gt;Upload File&lt;/font&gt;" style="text;html=1;align=center;verticalAlign=middle;whiteSpace=wrap;rounded=0;" vertex="1" parent="1">
          <mxGeometry x="1001" y="180" width="157" height="14" as="geometry" />
        </mxCell>
        <mxCell id="Jp8yfKyTnRDQH-Kfa9AB-200" value="" style="rounded=1;whiteSpace=wrap;html=1;" vertex="1" parent="1">
          <mxGeometry x="2085" y="250" width="259" height="157" as="geometry" />
        </mxCell>
        <mxCell id="Jp8yfKyTnRDQH-Kfa9AB-201" value="" style="html=1;verticalLabelPosition=bottom;align=center;labelBackgroundColor=#ffffff;verticalAlign=top;strokeWidth=2;strokeColor=#0080F0;shadow=0;dashed=0;shape=mxgraph.ios7.icons.down;" vertex="1" parent="1">
          <mxGeometry x="2196" y="304.5" width="46" height="48" as="geometry" />
        </mxCell>
        <mxCell id="Jp8yfKyTnRDQH-Kfa9AB-202" value="&lt;font style=&quot;font-size: 18px;&quot;&gt;Insert File&lt;/font&gt;" style="text;html=1;align=center;verticalAlign=middle;whiteSpace=wrap;rounded=0;" vertex="1" parent="1">
          <mxGeometry x="2100" y="260" width="96" height="24" as="geometry" />
        </mxCell>
        <mxCell id="Jp8yfKyTnRDQH-Kfa9AB-203" value="&lt;font style=&quot;font-size: 14px;&quot;&gt;Drag and drop&lt;/font&gt;" style="text;html=1;align=center;verticalAlign=middle;whiteSpace=wrap;rounded=0;" vertex="1" parent="1">
          <mxGeometry x="2107" y="373" width="96" height="24" as="geometry" />
        </mxCell>
        <mxCell id="Jp8yfKyTnRDQH-Kfa9AB-204" value="&lt;font style=&quot;font-size: 14px;&quot;&gt;Search&lt;/font&gt;" style="text;html=1;align=center;verticalAlign=middle;whiteSpace=wrap;rounded=0;" vertex="1" parent="1">
          <mxGeometry x="2242" y="376" width="96" height="24" as="geometry" />
        </mxCell>
        <mxCell id="Jp8yfKyTnRDQH-Kfa9AB-205" value="" style="rounded=1;whiteSpace=wrap;html=1;" vertex="1" parent="1">
          <mxGeometry x="1736" y="251" width="311" height="159" as="geometry" />
        </mxCell>
        <mxCell id="Jp8yfKyTnRDQH-Kfa9AB-206" value="&lt;font style=&quot;font-size: 18px;&quot;&gt;File Instructions&lt;/font&gt;" style="text;html=1;align=center;verticalAlign=middle;whiteSpace=wrap;rounded=0;" vertex="1" parent="1">
          <mxGeometry x="1743" y="265" width="157" height="14" as="geometry" />
        </mxCell>
        <mxCell id="Jp8yfKyTnRDQH-Kfa9AB-207" value="&lt;font&gt;&lt;u style=&quot;&quot;&gt;Download file example&lt;/u&gt;&lt;/font&gt;" style="text;html=1;align=center;verticalAlign=middle;whiteSpace=wrap;rounded=0;" vertex="1" parent="1">
          <mxGeometry x="1895" y="263" width="162" height="18" as="geometry" />
        </mxCell>
        <mxCell id="Jp8yfKyTnRDQH-Kfa9AB-208" value="&lt;ul&gt;&lt;li&gt;&lt;span style=&quot;font-family: &amp;quot;Open Sans&amp;quot;, Arial, sans-serif; background-color: rgb(255, 255, 255);&quot;&gt;&lt;font style=&quot;font-size: 11px;&quot;&gt;Business Rule 1&lt;/font&gt;&lt;/span&gt;&lt;/li&gt;&lt;li&gt;&lt;span style=&quot;font-family: &amp;quot;Open Sans&amp;quot;, Arial, sans-serif; background-color: rgb(255, 255, 255);&quot;&gt;&lt;font style=&quot;font-size: 11px;&quot;&gt;Business Rule 2&lt;/font&gt;&lt;/span&gt;&lt;/li&gt;&lt;li&gt;&lt;span style=&quot;background-color: rgb(255, 255, 255);&quot;&gt;&lt;font face=&quot;Helvetica&quot;&gt;&lt;span style=&quot;text-align: justify;&quot;&gt;Lorem ipsum dolor sit amet, consectetur adipiscing elit.&amp;nbsp;&lt;/span&gt;&lt;/font&gt;&lt;/span&gt;&lt;/li&gt;&lt;/ul&gt;" style="text;html=1;align=left;verticalAlign=middle;whiteSpace=wrap;rounded=0;" vertex="1" parent="1">
          <mxGeometry x="1743" y="298" width="293" height="78" as="geometry" />
        </mxCell>
        <mxCell id="Jp8yfKyTnRDQH-Kfa9AB-209" value="1" style="ellipse;whiteSpace=wrap;html=1;aspect=fixed;" vertex="1" parent="1">
          <mxGeometry x="1880" y="200" width="29" height="29" as="geometry" />
        </mxCell>
        <mxCell id="Jp8yfKyTnRDQH-Kfa9AB-210" value="" style="ellipse;whiteSpace=wrap;html=1;aspect=fixed;fillColor=#f5f5f5;fontColor=#333333;strokeColor=#666666;" vertex="1" parent="1">
          <mxGeometry x="1964" y="205" width="16" height="16" as="geometry" />
        </mxCell>
        <mxCell id="Jp8yfKyTnRDQH-Kfa9AB-211" value="" style="ellipse;whiteSpace=wrap;html=1;aspect=fixed;fillColor=#f5f5f5;fontColor=#333333;strokeColor=#666666;" vertex="1" parent="1">
          <mxGeometry x="2041" y="205" width="16" height="16" as="geometry" />
        </mxCell>
        <mxCell id="Jp8yfKyTnRDQH-Kfa9AB-212" value="" style="ellipse;whiteSpace=wrap;html=1;aspect=fixed;fillColor=#f5f5f5;fontColor=#333333;strokeColor=#666666;" vertex="1" parent="1">
          <mxGeometry x="2122" y="205" width="16" height="16" as="geometry" />
        </mxCell>
        <mxCell id="Jp8yfKyTnRDQH-Kfa9AB-213" value="" style="endArrow=none;html=1;rounded=0;" edge="1" parent="1">
          <mxGeometry width="50" height="50" relative="1" as="geometry">
            <mxPoint x="1800" y="214" as="sourcePoint" />
            <mxPoint x="1880" y="214" as="targetPoint" />
          </mxGeometry>
        </mxCell>
        <mxCell id="Jp8yfKyTnRDQH-Kfa9AB-214" value="" style="endArrow=none;html=1;rounded=0;" edge="1" parent="1">
          <mxGeometry width="50" height="50" relative="1" as="geometry">
            <mxPoint x="1909" y="212.33" as="sourcePoint" />
            <mxPoint x="2216" y="212" as="targetPoint" />
          </mxGeometry>
        </mxCell>
        <mxCell id="Jp8yfKyTnRDQH-Kfa9AB-215" value="&lt;font style=&quot;font-size: 18px;&quot;&gt;Upload File&lt;/font&gt;" style="text;html=1;align=center;verticalAlign=middle;whiteSpace=wrap;rounded=0;" vertex="1" parent="1">
          <mxGeometry x="1821" y="177" width="157" height="14" as="geometry" />
        </mxCell>
        <mxCell id="Jp8yfKyTnRDQH-Kfa9AB-241" value="" style="group" vertex="1" connectable="0" parent="1">
          <mxGeometry x="-642.75" y="764" width="403.5" height="50.5" as="geometry" />
        </mxCell>
        <mxCell id="Jp8yfKyTnRDQH-Kfa9AB-231" value="" style="ellipse;whiteSpace=wrap;html=1;aspect=fixed;fillColor=#f5f5f5;fontColor=#333333;strokeColor=#666666;" vertex="1" parent="Jp8yfKyTnRDQH-Kfa9AB-241">
          <mxGeometry x="80.5" y="31" width="11" height="11" as="geometry" />
        </mxCell>
        <mxCell id="Jp8yfKyTnRDQH-Kfa9AB-232" value="" style="ellipse;whiteSpace=wrap;html=1;aspect=fixed;fillColor=#f5f5f5;fontColor=#333333;strokeColor=#666666;" vertex="1" parent="Jp8yfKyTnRDQH-Kfa9AB-241">
          <mxGeometry x="228.5" y="28" width="16" height="16" as="geometry" />
        </mxCell>
        <mxCell id="Jp8yfKyTnRDQH-Kfa9AB-233" value="" style="ellipse;whiteSpace=wrap;html=1;aspect=fixed;fillColor=#f5f5f5;fontColor=#333333;strokeColor=#666666;" vertex="1" parent="Jp8yfKyTnRDQH-Kfa9AB-241">
          <mxGeometry x="309.5" y="28" width="16" height="16" as="geometry" />
        </mxCell>
        <mxCell id="Jp8yfKyTnRDQH-Kfa9AB-234" value="" style="endArrow=none;html=1;rounded=0;" edge="1" parent="Jp8yfKyTnRDQH-Kfa9AB-241">
          <mxGeometry width="50" height="50" relative="1" as="geometry">
            <mxPoint y="35.66999999999996" as="sourcePoint" />
            <mxPoint x="80" y="35.66999999999996" as="targetPoint" />
          </mxGeometry>
        </mxCell>
        <mxCell id="Jp8yfKyTnRDQH-Kfa9AB-235" value="" style="endArrow=none;html=1;rounded=0;" edge="1" parent="Jp8yfKyTnRDQH-Kfa9AB-241" source="Jp8yfKyTnRDQH-Kfa9AB-238">
          <mxGeometry width="50" height="50" relative="1" as="geometry">
            <mxPoint x="96.5" y="35.33000000000004" as="sourcePoint" />
            <mxPoint x="403.5" y="35" as="targetPoint" />
          </mxGeometry>
        </mxCell>
        <mxCell id="Jp8yfKyTnRDQH-Kfa9AB-236" value="&lt;font style=&quot;font-size: 18px;&quot;&gt;Validate File&lt;/font&gt;" style="text;html=1;align=center;verticalAlign=middle;whiteSpace=wrap;rounded=0;" vertex="1" parent="Jp8yfKyTnRDQH-Kfa9AB-241">
          <mxGeometry x="83.5" width="157" height="14" as="geometry" />
        </mxCell>
        <mxCell id="Jp8yfKyTnRDQH-Kfa9AB-240" value="" style="endArrow=none;html=1;rounded=0;" edge="1" parent="Jp8yfKyTnRDQH-Kfa9AB-241" target="Jp8yfKyTnRDQH-Kfa9AB-238">
          <mxGeometry width="50" height="50" relative="1" as="geometry">
            <mxPoint x="96.5" y="35.33000000000004" as="sourcePoint" />
            <mxPoint x="403.5" y="35" as="targetPoint" />
          </mxGeometry>
        </mxCell>
        <mxCell id="Jp8yfKyTnRDQH-Kfa9AB-238" value="2" style="ellipse;whiteSpace=wrap;html=1;aspect=fixed;" vertex="1" parent="Jp8yfKyTnRDQH-Kfa9AB-241">
          <mxGeometry x="147.5" y="21.5" width="29" height="29" as="geometry" />
        </mxCell>
        <mxCell id="Jp8yfKyTnRDQH-Kfa9AB-243" value="" style="verticalLabelPosition=bottom;verticalAlign=top;html=1;shape=mxgraph.basic.rect;fillColor2=none;strokeWidth=1;size=20;indent=5;" vertex="1" parent="1">
          <mxGeometry x="32.5" y="619" width="767" height="394" as="geometry" />
        </mxCell>
        <mxCell id="Jp8yfKyTnRDQH-Kfa9AB-244" value="" style="verticalLabelPosition=bottom;verticalAlign=top;html=1;shape=mxgraph.basic.rect;fillColor2=none;strokeWidth=1;size=20;indent=5;" vertex="1" parent="1">
          <mxGeometry x="49.5" y="632" width="738" height="18" as="geometry" />
        </mxCell>
        <mxCell id="Jp8yfKyTnRDQH-Kfa9AB-245" value="cockpit.juntos.com" style="text;html=1;align=center;verticalAlign=middle;resizable=0;points=[];autosize=1;strokeColor=none;fillColor=none;" vertex="1" parent="1">
          <mxGeometry x="46.5" y="628" width="117" height="26" as="geometry" />
        </mxCell>
        <mxCell id="Jp8yfKyTnRDQH-Kfa9AB-246" value="" style="rounded=0;whiteSpace=wrap;html=1;" vertex="1" parent="1">
          <mxGeometry x="51.5" y="657" width="19" height="337" as="geometry" />
        </mxCell>
        <mxCell id="Jp8yfKyTnRDQH-Kfa9AB-247" value="&lt;h1 style=&quot;margin-top: 0px;&quot;&gt;Bulk Uploads&lt;/h1&gt;" style="text;html=1;whiteSpace=wrap;overflow=hidden;rounded=0;" vertex="1" parent="1">
          <mxGeometry x="83.5" y="660" width="180" height="41" as="geometry" />
        </mxCell>
        <mxCell id="Jp8yfKyTnRDQH-Kfa9AB-248" value="" style="edgeStyle=orthogonalEdgeStyle;rounded=0;orthogonalLoop=1;jettySize=auto;html=1;" edge="1" parent="1" source="Jp8yfKyTnRDQH-Kfa9AB-249" target="Jp8yfKyTnRDQH-Kfa9AB-261">
          <mxGeometry relative="1" as="geometry" />
        </mxCell>
        <mxCell id="Jp8yfKyTnRDQH-Kfa9AB-249" value="" style="rounded=1;whiteSpace=wrap;html=1;" vertex="1" parent="1">
          <mxGeometry x="252" y="823.5" width="259" height="157" as="geometry" />
        </mxCell>
        <mxCell id="Jp8yfKyTnRDQH-Kfa9AB-250" value="Products" style="rounded=1;whiteSpace=wrap;html=1;" vertex="1" parent="1">
          <mxGeometry x="91.5" y="723" width="146" height="22" as="geometry" />
        </mxCell>
        <mxCell id="Jp8yfKyTnRDQH-Kfa9AB-251" value="Advisor" style="rounded=1;whiteSpace=wrap;html=1;" vertex="1" parent="1">
          <mxGeometry x="247.5" y="723" width="146" height="22" as="geometry" />
        </mxCell>
        <mxCell id="Jp8yfKyTnRDQH-Kfa9AB-252" value="Entity" style="text;html=1;align=center;verticalAlign=middle;whiteSpace=wrap;rounded=0;" vertex="1" parent="1">
          <mxGeometry x="83.5" y="698" width="60" height="30" as="geometry" />
        </mxCell>
        <mxCell id="Jp8yfKyTnRDQH-Kfa9AB-253" value="" style="html=1;verticalLabelPosition=bottom;labelBackgroundColor=#ffffff;verticalAlign=top;shadow=0;dashed=0;strokeWidth=2;shape=mxgraph.ios7.misc.down;strokeColor=#0080f0;" vertex="1" parent="1">
          <mxGeometry x="216.5" y="731" width="12" height="6" as="geometry" />
        </mxCell>
        <mxCell id="Jp8yfKyTnRDQH-Kfa9AB-254" value="Tenant" style="text;html=1;align=center;verticalAlign=middle;whiteSpace=wrap;rounded=0;" vertex="1" parent="1">
          <mxGeometry x="245.5" y="698" width="60" height="30" as="geometry" />
        </mxCell>
        <mxCell id="Jp8yfKyTnRDQH-Kfa9AB-255" value="" style="html=1;verticalLabelPosition=bottom;labelBackgroundColor=#ffffff;verticalAlign=top;shadow=0;dashed=0;strokeWidth=2;shape=mxgraph.ios7.misc.down;strokeColor=#0080f0;" vertex="1" parent="1">
          <mxGeometry x="375.5" y="731" width="12" height="6" as="geometry" />
        </mxCell>
        <mxCell id="Jp8yfKyTnRDQH-Kfa9AB-256" value="Country" style="text;html=1;align=center;verticalAlign=middle;whiteSpace=wrap;rounded=0;" vertex="1" parent="1">
          <mxGeometry x="408.5" y="698" width="60" height="30" as="geometry" />
        </mxCell>
        <mxCell id="Jp8yfKyTnRDQH-Kfa9AB-257" value="Mexico" style="rounded=1;whiteSpace=wrap;html=1;" vertex="1" parent="1">
          <mxGeometry x="416.5" y="723" width="146" height="22" as="geometry" />
        </mxCell>
        <mxCell id="Jp8yfKyTnRDQH-Kfa9AB-258" value="" style="html=1;verticalLabelPosition=bottom;labelBackgroundColor=#ffffff;verticalAlign=top;shadow=0;dashed=0;strokeWidth=2;shape=mxgraph.ios7.misc.down;strokeColor=#0080f0;" vertex="1" parent="1">
          <mxGeometry x="539.5" y="731" width="12" height="6" as="geometry" />
        </mxCell>
        <mxCell id="Jp8yfKyTnRDQH-Kfa9AB-259" value="&lt;font style=&quot;font-size: 18px;&quot;&gt;File Sucessful&lt;/font&gt;" style="text;html=1;align=center;verticalAlign=middle;whiteSpace=wrap;rounded=0;" vertex="1" parent="1">
          <mxGeometry x="261.5" y="835" width="144" height="24" as="geometry" />
        </mxCell>
        <mxCell id="Jp8yfKyTnRDQH-Kfa9AB-261" value="Format Validation" style="rounded=1;whiteSpace=wrap;html=1;" vertex="1" parent="1">
          <mxGeometry x="578.5" y="886" width="148" height="32" as="geometry" />
        </mxCell>
        <mxCell id="Jp8yfKyTnRDQH-Kfa9AB-262" value="" style="group" vertex="1" connectable="0" parent="1">
          <mxGeometry x="179.75" y="764" width="403.5" height="50.5" as="geometry" />
        </mxCell>
        <mxCell id="Jp8yfKyTnRDQH-Kfa9AB-263" value="" style="ellipse;whiteSpace=wrap;html=1;aspect=fixed;fillColor=#f5f5f5;fontColor=#333333;strokeColor=#666666;" vertex="1" parent="Jp8yfKyTnRDQH-Kfa9AB-262">
          <mxGeometry x="80.5" y="31" width="11" height="11" as="geometry" />
        </mxCell>
        <mxCell id="Jp8yfKyTnRDQH-Kfa9AB-264" value="" style="ellipse;whiteSpace=wrap;html=1;aspect=fixed;fillColor=#f5f5f5;fontColor=#333333;strokeColor=#666666;" vertex="1" parent="Jp8yfKyTnRDQH-Kfa9AB-262">
          <mxGeometry x="228.5" y="28" width="16" height="16" as="geometry" />
        </mxCell>
        <mxCell id="Jp8yfKyTnRDQH-Kfa9AB-265" value="" style="ellipse;whiteSpace=wrap;html=1;aspect=fixed;fillColor=#f5f5f5;fontColor=#333333;strokeColor=#666666;" vertex="1" parent="Jp8yfKyTnRDQH-Kfa9AB-262">
          <mxGeometry x="309.5" y="28" width="16" height="16" as="geometry" />
        </mxCell>
        <mxCell id="Jp8yfKyTnRDQH-Kfa9AB-266" value="" style="endArrow=none;html=1;rounded=0;" edge="1" parent="Jp8yfKyTnRDQH-Kfa9AB-262">
          <mxGeometry width="50" height="50" relative="1" as="geometry">
            <mxPoint y="35.66999999999996" as="sourcePoint" />
            <mxPoint x="80" y="35.66999999999996" as="targetPoint" />
          </mxGeometry>
        </mxCell>
        <mxCell id="Jp8yfKyTnRDQH-Kfa9AB-267" value="" style="endArrow=none;html=1;rounded=0;" edge="1" parent="Jp8yfKyTnRDQH-Kfa9AB-262" source="Jp8yfKyTnRDQH-Kfa9AB-270">
          <mxGeometry width="50" height="50" relative="1" as="geometry">
            <mxPoint x="96.5" y="35.33000000000004" as="sourcePoint" />
            <mxPoint x="403.5" y="35" as="targetPoint" />
          </mxGeometry>
        </mxCell>
        <mxCell id="Jp8yfKyTnRDQH-Kfa9AB-268" value="&lt;font style=&quot;font-size: 18px;&quot;&gt;Validate File&lt;/font&gt;" style="text;html=1;align=center;verticalAlign=middle;whiteSpace=wrap;rounded=0;" vertex="1" parent="Jp8yfKyTnRDQH-Kfa9AB-262">
          <mxGeometry x="83.5" width="157" height="14" as="geometry" />
        </mxCell>
        <mxCell id="Jp8yfKyTnRDQH-Kfa9AB-269" value="" style="endArrow=none;html=1;rounded=0;" edge="1" parent="Jp8yfKyTnRDQH-Kfa9AB-262" target="Jp8yfKyTnRDQH-Kfa9AB-270">
          <mxGeometry width="50" height="50" relative="1" as="geometry">
            <mxPoint x="96.5" y="35.33000000000004" as="sourcePoint" />
            <mxPoint x="403.5" y="35" as="targetPoint" />
          </mxGeometry>
        </mxCell>
        <mxCell id="Jp8yfKyTnRDQH-Kfa9AB-270" value="2" style="ellipse;whiteSpace=wrap;html=1;aspect=fixed;" vertex="1" parent="Jp8yfKyTnRDQH-Kfa9AB-262">
          <mxGeometry x="147.5" y="21.5" width="29" height="29" as="geometry" />
        </mxCell>
        <mxCell id="Jp8yfKyTnRDQH-Kfa9AB-272" value="Start Process" style="rounded=1;whiteSpace=wrap;html=1;" vertex="1" parent="1">
          <mxGeometry x="397" y="946" width="98" height="21" as="geometry" />
        </mxCell>
        <mxCell id="Jp8yfKyTnRDQH-Kfa9AB-273" value="" style="verticalLabelPosition=bottom;verticalAlign=top;html=1;shape=mxgraph.basic.rect;fillColor2=none;strokeWidth=1;size=20;indent=5;" vertex="1" parent="1">
          <mxGeometry x="-797" y="1134" width="767" height="394" as="geometry" />
        </mxCell>
        <mxCell id="Jp8yfKyTnRDQH-Kfa9AB-274" value="" style="verticalLabelPosition=bottom;verticalAlign=top;html=1;shape=mxgraph.basic.rect;fillColor2=none;strokeWidth=1;size=20;indent=5;" vertex="1" parent="1">
          <mxGeometry x="-780" y="1147" width="738" height="18" as="geometry" />
        </mxCell>
        <mxCell id="Jp8yfKyTnRDQH-Kfa9AB-275" value="cockpit.juntos.com" style="text;html=1;align=center;verticalAlign=middle;resizable=0;points=[];autosize=1;strokeColor=none;fillColor=none;" vertex="1" parent="1">
          <mxGeometry x="-783" y="1143" width="117" height="26" as="geometry" />
        </mxCell>
        <mxCell id="Jp8yfKyTnRDQH-Kfa9AB-276" value="" style="rounded=0;whiteSpace=wrap;html=1;" vertex="1" parent="1">
          <mxGeometry x="-778" y="1172" width="19" height="337" as="geometry" />
        </mxCell>
        <mxCell id="Jp8yfKyTnRDQH-Kfa9AB-277" value="&lt;h1 style=&quot;margin-top: 0px;&quot;&gt;Bulk Uploads&lt;/h1&gt;" style="text;html=1;whiteSpace=wrap;overflow=hidden;rounded=0;" vertex="1" parent="1">
          <mxGeometry x="-746" y="1175" width="180" height="41" as="geometry" />
        </mxCell>
        <mxCell id="Jp8yfKyTnRDQH-Kfa9AB-278" value="" style="edgeStyle=orthogonalEdgeStyle;rounded=0;orthogonalLoop=1;jettySize=auto;html=1;" edge="1" parent="1" source="Jp8yfKyTnRDQH-Kfa9AB-279" target="Jp8yfKyTnRDQH-Kfa9AB-290">
          <mxGeometry relative="1" as="geometry" />
        </mxCell>
        <mxCell id="Jp8yfKyTnRDQH-Kfa9AB-279" value="" style="rounded=1;whiteSpace=wrap;html=1;" vertex="1" parent="1">
          <mxGeometry x="-577.5" y="1338.5" width="259" height="157" as="geometry" />
        </mxCell>
        <mxCell id="Jp8yfKyTnRDQH-Kfa9AB-280" value="Products" style="rounded=1;whiteSpace=wrap;html=1;" vertex="1" parent="1">
          <mxGeometry x="-738" y="1238" width="146" height="22" as="geometry" />
        </mxCell>
        <mxCell id="Jp8yfKyTnRDQH-Kfa9AB-281" value="Advisor" style="rounded=1;whiteSpace=wrap;html=1;" vertex="1" parent="1">
          <mxGeometry x="-582" y="1238" width="146" height="22" as="geometry" />
        </mxCell>
        <mxCell id="Jp8yfKyTnRDQH-Kfa9AB-282" value="Entity" style="text;html=1;align=center;verticalAlign=middle;whiteSpace=wrap;rounded=0;" vertex="1" parent="1">
          <mxGeometry x="-746" y="1213" width="60" height="30" as="geometry" />
        </mxCell>
        <mxCell id="Jp8yfKyTnRDQH-Kfa9AB-283" value="" style="html=1;verticalLabelPosition=bottom;labelBackgroundColor=#ffffff;verticalAlign=top;shadow=0;dashed=0;strokeWidth=2;shape=mxgraph.ios7.misc.down;strokeColor=#0080f0;" vertex="1" parent="1">
          <mxGeometry x="-613" y="1246" width="12" height="6" as="geometry" />
        </mxCell>
        <mxCell id="Jp8yfKyTnRDQH-Kfa9AB-284" value="Tenant" style="text;html=1;align=center;verticalAlign=middle;whiteSpace=wrap;rounded=0;" vertex="1" parent="1">
          <mxGeometry x="-584" y="1213" width="60" height="30" as="geometry" />
        </mxCell>
        <mxCell id="Jp8yfKyTnRDQH-Kfa9AB-285" value="" style="html=1;verticalLabelPosition=bottom;labelBackgroundColor=#ffffff;verticalAlign=top;shadow=0;dashed=0;strokeWidth=2;shape=mxgraph.ios7.misc.down;strokeColor=#0080f0;" vertex="1" parent="1">
          <mxGeometry x="-454" y="1246" width="12" height="6" as="geometry" />
        </mxCell>
        <mxCell id="Jp8yfKyTnRDQH-Kfa9AB-286" value="Country" style="text;html=1;align=center;verticalAlign=middle;whiteSpace=wrap;rounded=0;" vertex="1" parent="1">
          <mxGeometry x="-421" y="1213" width="60" height="30" as="geometry" />
        </mxCell>
        <mxCell id="Jp8yfKyTnRDQH-Kfa9AB-287" value="Mexico" style="rounded=1;whiteSpace=wrap;html=1;" vertex="1" parent="1">
          <mxGeometry x="-413" y="1238" width="146" height="22" as="geometry" />
        </mxCell>
        <mxCell id="Jp8yfKyTnRDQH-Kfa9AB-288" value="" style="html=1;verticalLabelPosition=bottom;labelBackgroundColor=#ffffff;verticalAlign=top;shadow=0;dashed=0;strokeWidth=2;shape=mxgraph.ios7.misc.down;strokeColor=#0080f0;" vertex="1" parent="1">
          <mxGeometry x="-290" y="1246" width="12" height="6" as="geometry" />
        </mxCell>
        <mxCell id="Jp8yfKyTnRDQH-Kfa9AB-289" value="&lt;font style=&quot;font-size: 18px;&quot;&gt;Processing file&lt;/font&gt;" style="text;html=1;align=center;verticalAlign=middle;whiteSpace=wrap;rounded=0;" vertex="1" parent="1">
          <mxGeometry x="-568" y="1350" width="144" height="24" as="geometry" />
        </mxCell>
        <mxCell id="Jp8yfKyTnRDQH-Kfa9AB-290" value="File processing line by line" style="rounded=1;whiteSpace=wrap;html=1;" vertex="1" parent="1">
          <mxGeometry x="-251" y="1401" width="148" height="32" as="geometry" />
        </mxCell>
        <mxCell id="Jp8yfKyTnRDQH-Kfa9AB-291" value="" style="group" vertex="1" connectable="0" parent="1">
          <mxGeometry x="-649.75" y="1279" width="403.5" height="50.5" as="geometry" />
        </mxCell>
        <mxCell id="Jp8yfKyTnRDQH-Kfa9AB-292" value="" style="ellipse;whiteSpace=wrap;html=1;aspect=fixed;fillColor=#f5f5f5;fontColor=#333333;strokeColor=#666666;" vertex="1" parent="Jp8yfKyTnRDQH-Kfa9AB-291">
          <mxGeometry x="78.75" y="28" width="11" height="11" as="geometry" />
        </mxCell>
        <mxCell id="Jp8yfKyTnRDQH-Kfa9AB-314" style="edgeStyle=orthogonalEdgeStyle;rounded=0;orthogonalLoop=1;jettySize=auto;html=1;exitX=1;exitY=0.5;exitDx=0;exitDy=0;entryX=0;entryY=0.5;entryDx=0;entryDy=0;" edge="1" parent="Jp8yfKyTnRDQH-Kfa9AB-291" source="Jp8yfKyTnRDQH-Kfa9AB-293" target="Jp8yfKyTnRDQH-Kfa9AB-302">
          <mxGeometry relative="1" as="geometry" />
        </mxCell>
        <mxCell id="Jp8yfKyTnRDQH-Kfa9AB-293" value="" style="ellipse;whiteSpace=wrap;html=1;aspect=fixed;fillColor=#f5f5f5;fontColor=#333333;strokeColor=#666666;" vertex="1" parent="Jp8yfKyTnRDQH-Kfa9AB-291">
          <mxGeometry x="159.75" y="26" width="16" height="16" as="geometry" />
        </mxCell>
        <mxCell id="Jp8yfKyTnRDQH-Kfa9AB-294" value="" style="ellipse;whiteSpace=wrap;html=1;aspect=fixed;fillColor=#f5f5f5;fontColor=#333333;strokeColor=#666666;" vertex="1" parent="Jp8yfKyTnRDQH-Kfa9AB-291">
          <mxGeometry x="309.5" y="28" width="16" height="16" as="geometry" />
        </mxCell>
        <mxCell id="Jp8yfKyTnRDQH-Kfa9AB-296" value="" style="endArrow=none;html=1;rounded=0;" edge="1" parent="Jp8yfKyTnRDQH-Kfa9AB-291" source="Jp8yfKyTnRDQH-Kfa9AB-302">
          <mxGeometry width="50" height="50" relative="1" as="geometry">
            <mxPoint x="176.49991319626974" y="35.9498272899782" as="sourcePoint" />
            <mxPoint x="403.5" y="35" as="targetPoint" />
          </mxGeometry>
        </mxCell>
        <mxCell id="Jp8yfKyTnRDQH-Kfa9AB-297" value="&lt;font style=&quot;font-size: 18px;&quot;&gt;Process File&lt;/font&gt;" style="text;html=1;align=center;verticalAlign=middle;whiteSpace=wrap;rounded=0;" vertex="1" parent="Jp8yfKyTnRDQH-Kfa9AB-291">
          <mxGeometry x="168.5" width="157" height="14" as="geometry" />
        </mxCell>
        <mxCell id="Jp8yfKyTnRDQH-Kfa9AB-298" value="" style="endArrow=none;html=1;rounded=0;entryX=0;entryY=0.5;entryDx=0;entryDy=0;exitX=1;exitY=0.5;exitDx=0;exitDy=0;" edge="1" parent="Jp8yfKyTnRDQH-Kfa9AB-291" target="Jp8yfKyTnRDQH-Kfa9AB-293" source="Jp8yfKyTnRDQH-Kfa9AB-292">
          <mxGeometry width="50" height="50" relative="1" as="geometry">
            <mxPoint x="96.5" y="35.33000000000004" as="sourcePoint" />
            <mxPoint x="147.5000000000034" y="36" as="targetPoint" />
          </mxGeometry>
        </mxCell>
        <mxCell id="Jp8yfKyTnRDQH-Kfa9AB-302" value="3" style="ellipse;whiteSpace=wrap;html=1;aspect=fixed;" vertex="1" parent="Jp8yfKyTnRDQH-Kfa9AB-291">
          <mxGeometry x="235.5" y="19.5" width="29" height="29" as="geometry" />
        </mxCell>
        <mxCell id="Jp8yfKyTnRDQH-Kfa9AB-319" value="" style="rounded=1;whiteSpace=wrap;html=1;" vertex="1" parent="1">
          <mxGeometry x="-555" y="1381" width="203" height="6" as="geometry" />
        </mxCell>
        <mxCell id="Jp8yfKyTnRDQH-Kfa9AB-320" value="" style="rounded=1;whiteSpace=wrap;html=1;fillColor=#000000;fontColor=#333333;strokeColor=light-dark(#1d1b1b, #959595);" vertex="1" parent="1">
          <mxGeometry x="-555" y="1381" width="78" height="6" as="geometry" />
        </mxCell>
        <mxCell id="Jp8yfKyTnRDQH-Kfa9AB-321" value="&lt;font style=&quot;font-size: 6px;&quot;&gt;47%&lt;/font&gt;" style="text;html=1;align=center;verticalAlign=middle;whiteSpace=wrap;rounded=0;" vertex="1" parent="1">
          <mxGeometry x="-368" y="1379" width="53" height="8" as="geometry" />
        </mxCell>
        <mxCell id="Jp8yfKyTnRDQH-Kfa9AB-323" value="" style="verticalLabelPosition=bottom;verticalAlign=top;html=1;shape=mxgraph.basic.rect;fillColor2=none;strokeWidth=1;size=20;indent=5;" vertex="1" parent="1">
          <mxGeometry x="-794.5" y="1613" width="767" height="394" as="geometry" />
        </mxCell>
        <mxCell id="Jp8yfKyTnRDQH-Kfa9AB-324" value="" style="verticalLabelPosition=bottom;verticalAlign=top;html=1;shape=mxgraph.basic.rect;fillColor2=none;strokeWidth=1;size=20;indent=5;" vertex="1" parent="1">
          <mxGeometry x="-777.5" y="1626" width="738" height="18" as="geometry" />
        </mxCell>
        <mxCell id="Jp8yfKyTnRDQH-Kfa9AB-325" value="cockpit.juntos.com" style="text;html=1;align=center;verticalAlign=middle;resizable=0;points=[];autosize=1;strokeColor=none;fillColor=none;" vertex="1" parent="1">
          <mxGeometry x="-780.5" y="1622" width="117" height="26" as="geometry" />
        </mxCell>
        <mxCell id="Jp8yfKyTnRDQH-Kfa9AB-326" value="" style="rounded=0;whiteSpace=wrap;html=1;" vertex="1" parent="1">
          <mxGeometry x="-775.5" y="1651" width="19" height="337" as="geometry" />
        </mxCell>
        <mxCell id="Jp8yfKyTnRDQH-Kfa9AB-327" value="&lt;h1 style=&quot;margin-top: 0px;&quot;&gt;Bulk Uploads&lt;/h1&gt;" style="text;html=1;whiteSpace=wrap;overflow=hidden;rounded=0;" vertex="1" parent="1">
          <mxGeometry x="-743.5" y="1654" width="180" height="41" as="geometry" />
        </mxCell>
        <mxCell id="Jp8yfKyTnRDQH-Kfa9AB-328" value="" style="edgeStyle=orthogonalEdgeStyle;rounded=0;orthogonalLoop=1;jettySize=auto;html=1;" edge="1" parent="1" source="Jp8yfKyTnRDQH-Kfa9AB-329" target="Jp8yfKyTnRDQH-Kfa9AB-340">
          <mxGeometry relative="1" as="geometry" />
        </mxCell>
        <mxCell id="Jp8yfKyTnRDQH-Kfa9AB-329" value="" style="rounded=1;whiteSpace=wrap;html=1;" vertex="1" parent="1">
          <mxGeometry x="-575" y="1817.5" width="259" height="157" as="geometry" />
        </mxCell>
        <mxCell id="Jp8yfKyTnRDQH-Kfa9AB-330" value="Products" style="rounded=1;whiteSpace=wrap;html=1;" vertex="1" parent="1">
          <mxGeometry x="-735.5" y="1717" width="146" height="22" as="geometry" />
        </mxCell>
        <mxCell id="Jp8yfKyTnRDQH-Kfa9AB-331" value="Advisor" style="rounded=1;whiteSpace=wrap;html=1;" vertex="1" parent="1">
          <mxGeometry x="-579.5" y="1717" width="146" height="22" as="geometry" />
        </mxCell>
        <mxCell id="Jp8yfKyTnRDQH-Kfa9AB-332" value="Entity" style="text;html=1;align=center;verticalAlign=middle;whiteSpace=wrap;rounded=0;" vertex="1" parent="1">
          <mxGeometry x="-743.5" y="1692" width="60" height="30" as="geometry" />
        </mxCell>
        <mxCell id="Jp8yfKyTnRDQH-Kfa9AB-333" value="" style="html=1;verticalLabelPosition=bottom;labelBackgroundColor=#ffffff;verticalAlign=top;shadow=0;dashed=0;strokeWidth=2;shape=mxgraph.ios7.misc.down;strokeColor=#0080f0;" vertex="1" parent="1">
          <mxGeometry x="-610.5" y="1725" width="12" height="6" as="geometry" />
        </mxCell>
        <mxCell id="Jp8yfKyTnRDQH-Kfa9AB-334" value="Tenant" style="text;html=1;align=center;verticalAlign=middle;whiteSpace=wrap;rounded=0;" vertex="1" parent="1">
          <mxGeometry x="-581.5" y="1692" width="60" height="30" as="geometry" />
        </mxCell>
        <mxCell id="Jp8yfKyTnRDQH-Kfa9AB-335" value="" style="html=1;verticalLabelPosition=bottom;labelBackgroundColor=#ffffff;verticalAlign=top;shadow=0;dashed=0;strokeWidth=2;shape=mxgraph.ios7.misc.down;strokeColor=#0080f0;" vertex="1" parent="1">
          <mxGeometry x="-451.5" y="1725" width="12" height="6" as="geometry" />
        </mxCell>
        <mxCell id="Jp8yfKyTnRDQH-Kfa9AB-336" value="Country" style="text;html=1;align=center;verticalAlign=middle;whiteSpace=wrap;rounded=0;" vertex="1" parent="1">
          <mxGeometry x="-418.5" y="1692" width="60" height="30" as="geometry" />
        </mxCell>
        <mxCell id="Jp8yfKyTnRDQH-Kfa9AB-337" value="Mexico" style="rounded=1;whiteSpace=wrap;html=1;" vertex="1" parent="1">
          <mxGeometry x="-410.5" y="1717" width="146" height="22" as="geometry" />
        </mxCell>
        <mxCell id="Jp8yfKyTnRDQH-Kfa9AB-338" value="" style="html=1;verticalLabelPosition=bottom;labelBackgroundColor=#ffffff;verticalAlign=top;shadow=0;dashed=0;strokeWidth=2;shape=mxgraph.ios7.misc.down;strokeColor=#0080f0;" vertex="1" parent="1">
          <mxGeometry x="-287.5" y="1725" width="12" height="6" as="geometry" />
        </mxCell>
        <mxCell id="Jp8yfKyTnRDQH-Kfa9AB-339" value="&lt;font style=&quot;font-size: 18px;&quot;&gt;File processed without errors&lt;/font&gt;" style="text;html=1;align=left;verticalAlign=middle;whiteSpace=wrap;rounded=0;" vertex="1" parent="1">
          <mxGeometry x="-563" y="1833" width="235" height="19" as="geometry" />
        </mxCell>
        <mxCell id="Jp8yfKyTnRDQH-Kfa9AB-340" value="Generated CSV with the results" style="rounded=1;whiteSpace=wrap;html=1;" vertex="1" parent="1">
          <mxGeometry x="-248.5" y="1880" width="148" height="32" as="geometry" />
        </mxCell>
        <mxCell id="Jp8yfKyTnRDQH-Kfa9AB-341" value="" style="group" vertex="1" connectable="0" parent="1">
          <mxGeometry x="-647.25" y="1758" width="403.5" height="50.5" as="geometry" />
        </mxCell>
        <mxCell id="Jp8yfKyTnRDQH-Kfa9AB-342" value="" style="ellipse;whiteSpace=wrap;html=1;aspect=fixed;fillColor=#f5f5f5;fontColor=#333333;strokeColor=#666666;" vertex="1" parent="Jp8yfKyTnRDQH-Kfa9AB-341">
          <mxGeometry x="78.75" y="28" width="11" height="11" as="geometry" />
        </mxCell>
        <mxCell id="Jp8yfKyTnRDQH-Kfa9AB-344" value="" style="ellipse;whiteSpace=wrap;html=1;aspect=fixed;fillColor=#f5f5f5;fontColor=#333333;strokeColor=#666666;" vertex="1" parent="Jp8yfKyTnRDQH-Kfa9AB-341">
          <mxGeometry x="159.75" y="26" width="16" height="16" as="geometry" />
        </mxCell>
        <mxCell id="Jp8yfKyTnRDQH-Kfa9AB-346" value="" style="endArrow=none;html=1;rounded=0;" edge="1" parent="Jp8yfKyTnRDQH-Kfa9AB-341" source="Jp8yfKyTnRDQH-Kfa9AB-349">
          <mxGeometry width="50" height="50" relative="1" as="geometry">
            <mxPoint x="176.49991319626974" y="35.9498272899782" as="sourcePoint" />
            <mxPoint x="403.5" y="35" as="targetPoint" />
          </mxGeometry>
        </mxCell>
        <mxCell id="Jp8yfKyTnRDQH-Kfa9AB-347" value="&lt;font style=&quot;font-size: 18px;&quot;&gt;Results&lt;/font&gt;" style="text;html=1;align=center;verticalAlign=middle;whiteSpace=wrap;rounded=0;" vertex="1" parent="Jp8yfKyTnRDQH-Kfa9AB-341">
          <mxGeometry x="239" width="157" height="14" as="geometry" />
        </mxCell>
        <mxCell id="Jp8yfKyTnRDQH-Kfa9AB-348" value="" style="endArrow=none;html=1;rounded=0;entryX=0;entryY=0.5;entryDx=0;entryDy=0;exitX=1;exitY=0.5;exitDx=0;exitDy=0;" edge="1" parent="Jp8yfKyTnRDQH-Kfa9AB-341" source="Jp8yfKyTnRDQH-Kfa9AB-342" target="Jp8yfKyTnRDQH-Kfa9AB-344">
          <mxGeometry width="50" height="50" relative="1" as="geometry">
            <mxPoint x="96.5" y="35.33000000000004" as="sourcePoint" />
            <mxPoint x="147.5000000000034" y="36" as="targetPoint" />
          </mxGeometry>
        </mxCell>
        <mxCell id="Jp8yfKyTnRDQH-Kfa9AB-349" value="&lt;span style=&quot;color: rgba(0, 0, 0, 0); font-family: monospace; font-size: 0px; text-align: start; text-wrap-mode: nowrap;&quot;&gt;4&lt;/span&gt;" style="ellipse;whiteSpace=wrap;html=1;aspect=fixed;" vertex="1" parent="Jp8yfKyTnRDQH-Kfa9AB-341">
          <mxGeometry x="306.25" y="19.5" width="29" height="29" as="geometry" />
        </mxCell>
        <mxCell id="Jp8yfKyTnRDQH-Kfa9AB-345" value="" style="ellipse;whiteSpace=wrap;html=1;aspect=fixed;fillColor=#f5f5f5;fontColor=#333333;strokeColor=#666666;" vertex="1" parent="Jp8yfKyTnRDQH-Kfa9AB-341">
          <mxGeometry x="233.75" y="25.5" width="16" height="16" as="geometry" />
        </mxCell>
        <mxCell id="Jp8yfKyTnRDQH-Kfa9AB-356" value="" style="endArrow=none;html=1;rounded=0;entryX=0;entryY=0.5;entryDx=0;entryDy=0;" edge="1" parent="Jp8yfKyTnRDQH-Kfa9AB-341" source="Jp8yfKyTnRDQH-Kfa9AB-344" target="Jp8yfKyTnRDQH-Kfa9AB-349">
          <mxGeometry width="50" height="50" relative="1" as="geometry">
            <mxPoint x="453.25" y="108" as="sourcePoint" />
            <mxPoint x="503.25" y="58" as="targetPoint" />
          </mxGeometry>
        </mxCell>
        <mxCell id="Jp8yfKyTnRDQH-Kfa9AB-357" value="" style="html=1;verticalLabelPosition=bottom;align=center;labelBackgroundColor=#ffffff;verticalAlign=top;strokeWidth=2;strokeColor=#0080F0;shadow=0;dashed=0;shape=mxgraph.ios7.icons.select;" vertex="1" parent="1">
          <mxGeometry x="-479" y="1863" width="58" height="61" as="geometry" />
        </mxCell>
        <mxCell id="Jp8yfKyTnRDQH-Kfa9AB-358" value="&lt;font&gt;&lt;u style=&quot;&quot;&gt;Download results&lt;/u&gt;&lt;/font&gt;" style="text;html=1;align=center;verticalAlign=middle;whiteSpace=wrap;rounded=0;" vertex="1" parent="1">
          <mxGeometry x="-523" y="1940" width="162" height="18" as="geometry" />
        </mxCell>
        <mxCell id="Jp8yfKyTnRDQH-Kfa9AB-359" value="" style="verticalLabelPosition=bottom;verticalAlign=top;html=1;shape=mxgraph.basic.rect;fillColor2=none;strokeWidth=1;size=20;indent=5;" vertex="1" parent="1">
          <mxGeometry x="859.5" y="619" width="767" height="394" as="geometry" />
        </mxCell>
        <mxCell id="Jp8yfKyTnRDQH-Kfa9AB-360" value="" style="verticalLabelPosition=bottom;verticalAlign=top;html=1;shape=mxgraph.basic.rect;fillColor2=none;strokeWidth=1;size=20;indent=5;" vertex="1" parent="1">
          <mxGeometry x="874" y="629" width="738" height="18" as="geometry" />
        </mxCell>
        <mxCell id="Jp8yfKyTnRDQH-Kfa9AB-361" value="cockpit.juntos.com" style="text;html=1;align=center;verticalAlign=middle;resizable=0;points=[];autosize=1;strokeColor=none;fillColor=none;" vertex="1" parent="1">
          <mxGeometry x="871" y="625" width="117" height="26" as="geometry" />
        </mxCell>
        <mxCell id="Jp8yfKyTnRDQH-Kfa9AB-362" value="" style="rounded=0;whiteSpace=wrap;html=1;" vertex="1" parent="1">
          <mxGeometry x="876" y="654" width="19" height="337" as="geometry" />
        </mxCell>
        <mxCell id="Jp8yfKyTnRDQH-Kfa9AB-363" value="&lt;h1 style=&quot;margin-top: 0px;&quot;&gt;Bulk Uploads&lt;/h1&gt;" style="text;html=1;whiteSpace=wrap;overflow=hidden;rounded=0;" vertex="1" parent="1">
          <mxGeometry x="908" y="657" width="180" height="41" as="geometry" />
        </mxCell>
        <mxCell id="Jp8yfKyTnRDQH-Kfa9AB-364" value="" style="edgeStyle=orthogonalEdgeStyle;rounded=0;orthogonalLoop=1;jettySize=auto;html=1;" edge="1" parent="1" source="Jp8yfKyTnRDQH-Kfa9AB-365" target="Jp8yfKyTnRDQH-Kfa9AB-376">
          <mxGeometry relative="1" as="geometry" />
        </mxCell>
        <mxCell id="Jp8yfKyTnRDQH-Kfa9AB-365" value="" style="rounded=1;whiteSpace=wrap;html=1;" vertex="1" parent="1">
          <mxGeometry x="1076.5" y="820.5" width="259" height="157" as="geometry" />
        </mxCell>
        <mxCell id="Jp8yfKyTnRDQH-Kfa9AB-366" value="Products" style="rounded=1;whiteSpace=wrap;html=1;" vertex="1" parent="1">
          <mxGeometry x="916" y="720" width="146" height="22" as="geometry" />
        </mxCell>
        <mxCell id="Jp8yfKyTnRDQH-Kfa9AB-367" value="Advisor" style="rounded=1;whiteSpace=wrap;html=1;" vertex="1" parent="1">
          <mxGeometry x="1072" y="720" width="146" height="22" as="geometry" />
        </mxCell>
        <mxCell id="Jp8yfKyTnRDQH-Kfa9AB-368" value="Entity" style="text;html=1;align=center;verticalAlign=middle;whiteSpace=wrap;rounded=0;" vertex="1" parent="1">
          <mxGeometry x="908" y="695" width="60" height="30" as="geometry" />
        </mxCell>
        <mxCell id="Jp8yfKyTnRDQH-Kfa9AB-369" value="" style="html=1;verticalLabelPosition=bottom;labelBackgroundColor=#ffffff;verticalAlign=top;shadow=0;dashed=0;strokeWidth=2;shape=mxgraph.ios7.misc.down;strokeColor=#0080f0;" vertex="1" parent="1">
          <mxGeometry x="1041" y="728" width="12" height="6" as="geometry" />
        </mxCell>
        <mxCell id="Jp8yfKyTnRDQH-Kfa9AB-370" value="Tenant" style="text;html=1;align=center;verticalAlign=middle;whiteSpace=wrap;rounded=0;" vertex="1" parent="1">
          <mxGeometry x="1070" y="695" width="60" height="30" as="geometry" />
        </mxCell>
        <mxCell id="Jp8yfKyTnRDQH-Kfa9AB-371" value="" style="html=1;verticalLabelPosition=bottom;labelBackgroundColor=#ffffff;verticalAlign=top;shadow=0;dashed=0;strokeWidth=2;shape=mxgraph.ios7.misc.down;strokeColor=#0080f0;" vertex="1" parent="1">
          <mxGeometry x="1200" y="728" width="12" height="6" as="geometry" />
        </mxCell>
        <mxCell id="Jp8yfKyTnRDQH-Kfa9AB-372" value="Country" style="text;html=1;align=center;verticalAlign=middle;whiteSpace=wrap;rounded=0;" vertex="1" parent="1">
          <mxGeometry x="1233" y="695" width="60" height="30" as="geometry" />
        </mxCell>
        <mxCell id="Jp8yfKyTnRDQH-Kfa9AB-373" value="Mexico" style="rounded=1;whiteSpace=wrap;html=1;" vertex="1" parent="1">
          <mxGeometry x="1241" y="720" width="146" height="22" as="geometry" />
        </mxCell>
        <mxCell id="Jp8yfKyTnRDQH-Kfa9AB-374" value="" style="html=1;verticalLabelPosition=bottom;labelBackgroundColor=#ffffff;verticalAlign=top;shadow=0;dashed=0;strokeWidth=2;shape=mxgraph.ios7.misc.down;strokeColor=#0080f0;" vertex="1" parent="1">
          <mxGeometry x="1364" y="728" width="12" height="6" as="geometry" />
        </mxCell>
        <mxCell id="Jp8yfKyTnRDQH-Kfa9AB-375" value="&lt;font style=&quot;font-size: 16px;&quot;&gt;File Failed&lt;/font&gt;&lt;div&gt;&lt;font style=&quot;font-size: 11px;&quot;&gt;Error: invalid column&lt;/font&gt;&lt;/div&gt;" style="text;html=1;align=left;verticalAlign=middle;whiteSpace=wrap;rounded=0;" vertex="1" parent="1">
          <mxGeometry x="1088" y="838" width="330" height="13" as="geometry" />
        </mxCell>
        <mxCell id="Jp8yfKyTnRDQH-Kfa9AB-376" value="Forma Error" style="rounded=1;whiteSpace=wrap;html=1;" vertex="1" parent="1">
          <mxGeometry x="1403" y="883" width="148" height="32" as="geometry" />
        </mxCell>
        <mxCell id="Jp8yfKyTnRDQH-Kfa9AB-377" value="" style="group" vertex="1" connectable="0" parent="1">
          <mxGeometry x="1004.25" y="761" width="403.5" height="50.5" as="geometry" />
        </mxCell>
        <mxCell id="Jp8yfKyTnRDQH-Kfa9AB-378" value="" style="ellipse;whiteSpace=wrap;html=1;aspect=fixed;fillColor=#f5f5f5;fontColor=#333333;strokeColor=#666666;" vertex="1" parent="Jp8yfKyTnRDQH-Kfa9AB-377">
          <mxGeometry x="80.5" y="31" width="11" height="11" as="geometry" />
        </mxCell>
        <mxCell id="Jp8yfKyTnRDQH-Kfa9AB-379" value="" style="ellipse;whiteSpace=wrap;html=1;aspect=fixed;fillColor=#f5f5f5;fontColor=#333333;strokeColor=#666666;" vertex="1" parent="Jp8yfKyTnRDQH-Kfa9AB-377">
          <mxGeometry x="228.5" y="28" width="16" height="16" as="geometry" />
        </mxCell>
        <mxCell id="Jp8yfKyTnRDQH-Kfa9AB-380" value="" style="ellipse;whiteSpace=wrap;html=1;aspect=fixed;fillColor=#f5f5f5;fontColor=#333333;strokeColor=#666666;" vertex="1" parent="Jp8yfKyTnRDQH-Kfa9AB-377">
          <mxGeometry x="309.5" y="28" width="16" height="16" as="geometry" />
        </mxCell>
        <mxCell id="Jp8yfKyTnRDQH-Kfa9AB-381" value="" style="endArrow=none;html=1;rounded=0;" edge="1" parent="Jp8yfKyTnRDQH-Kfa9AB-377">
          <mxGeometry width="50" height="50" relative="1" as="geometry">
            <mxPoint y="35.66999999999996" as="sourcePoint" />
            <mxPoint x="80" y="35.66999999999996" as="targetPoint" />
          </mxGeometry>
        </mxCell>
        <mxCell id="Jp8yfKyTnRDQH-Kfa9AB-382" value="" style="endArrow=none;html=1;rounded=0;" edge="1" parent="Jp8yfKyTnRDQH-Kfa9AB-377" source="Jp8yfKyTnRDQH-Kfa9AB-385">
          <mxGeometry width="50" height="50" relative="1" as="geometry">
            <mxPoint x="96.5" y="35.33000000000004" as="sourcePoint" />
            <mxPoint x="403.5" y="35" as="targetPoint" />
          </mxGeometry>
        </mxCell>
        <mxCell id="Jp8yfKyTnRDQH-Kfa9AB-383" value="&lt;font style=&quot;font-size: 18px;&quot;&gt;Validate File&lt;/font&gt;" style="text;html=1;align=center;verticalAlign=middle;whiteSpace=wrap;rounded=0;" vertex="1" parent="Jp8yfKyTnRDQH-Kfa9AB-377">
          <mxGeometry x="83.5" width="157" height="14" as="geometry" />
        </mxCell>
        <mxCell id="Jp8yfKyTnRDQH-Kfa9AB-384" value="" style="endArrow=none;html=1;rounded=0;" edge="1" parent="Jp8yfKyTnRDQH-Kfa9AB-377" target="Jp8yfKyTnRDQH-Kfa9AB-385">
          <mxGeometry width="50" height="50" relative="1" as="geometry">
            <mxPoint x="96.5" y="35.33000000000004" as="sourcePoint" />
            <mxPoint x="403.5" y="35" as="targetPoint" />
          </mxGeometry>
        </mxCell>
        <mxCell id="Jp8yfKyTnRDQH-Kfa9AB-385" value="2" style="ellipse;whiteSpace=wrap;html=1;aspect=fixed;" vertex="1" parent="Jp8yfKyTnRDQH-Kfa9AB-377">
          <mxGeometry x="147.5" y="21.5" width="29" height="29" as="geometry" />
        </mxCell>
        <mxCell id="Jp8yfKyTnRDQH-Kfa9AB-387" value="&lt;font style=&quot;color: rgb(204, 204, 204);&quot;&gt;Start Process&lt;/font&gt;" style="rounded=1;whiteSpace=wrap;html=1;fillColor=#f5f5f5;fontColor=#333333;strokeColor=#666666;" vertex="1" parent="1">
          <mxGeometry x="1221.5" y="943" width="98" height="21" as="geometry" />
        </mxCell>
        <mxCell id="Jp8yfKyTnRDQH-Kfa9AB-388" value="" style="html=1;verticalLabelPosition=bottom;align=center;labelBackgroundColor=#ffffff;verticalAlign=top;strokeWidth=2;strokeColor=#0080F0;shadow=0;dashed=0;shape=mxgraph.ios7.icons.up;" vertex="1" parent="1">
          <mxGeometry x="-290" y="300" width="83" height="82" as="geometry" />
        </mxCell>
        <mxCell id="Jp8yfKyTnRDQH-Kfa9AB-389" value="" style="html=1;verticalLabelPosition=bottom;align=center;labelBackgroundColor=#ffffff;verticalAlign=top;strokeWidth=2;strokeColor=#0080F0;shadow=0;dashed=0;shape=mxgraph.ios7.icons.select;" vertex="1" parent="1">
          <mxGeometry x="342" y="868.75" width="71" height="66.5" as="geometry" />
        </mxCell>
        <mxCell id="Jp8yfKyTnRDQH-Kfa9AB-390" value="" style="html=1;verticalLabelPosition=bottom;labelBackgroundColor=#ffffff;verticalAlign=top;shadow=0;dashed=0;strokeWidth=2;shape=mxgraph.ios7.misc.delete;fillColor=#ff0000;strokeColor=#ffffff;sketch=0;" vertex="1" parent="1">
          <mxGeometry x="1173" y="866" width="60" height="58" as="geometry" />
        </mxCell>
        <mxCell id="Jp8yfKyTnRDQH-Kfa9AB-391" value="" style="verticalLabelPosition=bottom;verticalAlign=top;html=1;shape=mxgraph.basic.rect;fillColor2=none;strokeWidth=1;size=20;indent=5;" vertex="1" parent="1">
          <mxGeometry x="26" y="1134" width="767" height="394" as="geometry" />
        </mxCell>
        <mxCell id="Jp8yfKyTnRDQH-Kfa9AB-392" value="" style="verticalLabelPosition=bottom;verticalAlign=top;html=1;shape=mxgraph.basic.rect;fillColor2=none;strokeWidth=1;size=20;indent=5;" vertex="1" parent="1">
          <mxGeometry x="43" y="1147" width="738" height="18" as="geometry" />
        </mxCell>
        <mxCell id="Jp8yfKyTnRDQH-Kfa9AB-393" value="cockpit.juntos.com" style="text;html=1;align=center;verticalAlign=middle;resizable=0;points=[];autosize=1;strokeColor=none;fillColor=none;" vertex="1" parent="1">
          <mxGeometry x="40" y="1143" width="117" height="26" as="geometry" />
        </mxCell>
        <mxCell id="Jp8yfKyTnRDQH-Kfa9AB-394" value="" style="rounded=0;whiteSpace=wrap;html=1;" vertex="1" parent="1">
          <mxGeometry x="45" y="1172" width="19" height="337" as="geometry" />
        </mxCell>
        <mxCell id="Jp8yfKyTnRDQH-Kfa9AB-395" value="&lt;h1 style=&quot;margin-top: 0px;&quot;&gt;Bulk Uploads&lt;/h1&gt;" style="text;html=1;whiteSpace=wrap;overflow=hidden;rounded=0;" vertex="1" parent="1">
          <mxGeometry x="77" y="1175" width="180" height="41" as="geometry" />
        </mxCell>
        <mxCell id="Jp8yfKyTnRDQH-Kfa9AB-396" value="" style="edgeStyle=orthogonalEdgeStyle;rounded=0;orthogonalLoop=1;jettySize=auto;html=1;" edge="1" parent="1" source="Jp8yfKyTnRDQH-Kfa9AB-397" target="Jp8yfKyTnRDQH-Kfa9AB-408">
          <mxGeometry relative="1" as="geometry" />
        </mxCell>
        <mxCell id="Jp8yfKyTnRDQH-Kfa9AB-397" value="" style="rounded=1;whiteSpace=wrap;html=1;" vertex="1" parent="1">
          <mxGeometry x="245.5" y="1338.5" width="259" height="157" as="geometry" />
        </mxCell>
        <mxCell id="Jp8yfKyTnRDQH-Kfa9AB-398" value="Products" style="rounded=1;whiteSpace=wrap;html=1;" vertex="1" parent="1">
          <mxGeometry x="85" y="1238" width="146" height="22" as="geometry" />
        </mxCell>
        <mxCell id="Jp8yfKyTnRDQH-Kfa9AB-399" value="Advisor" style="rounded=1;whiteSpace=wrap;html=1;" vertex="1" parent="1">
          <mxGeometry x="241" y="1238" width="146" height="22" as="geometry" />
        </mxCell>
        <mxCell id="Jp8yfKyTnRDQH-Kfa9AB-400" value="Entity" style="text;html=1;align=center;verticalAlign=middle;whiteSpace=wrap;rounded=0;" vertex="1" parent="1">
          <mxGeometry x="77" y="1213" width="60" height="30" as="geometry" />
        </mxCell>
        <mxCell id="Jp8yfKyTnRDQH-Kfa9AB-401" value="" style="html=1;verticalLabelPosition=bottom;labelBackgroundColor=#ffffff;verticalAlign=top;shadow=0;dashed=0;strokeWidth=2;shape=mxgraph.ios7.misc.down;strokeColor=#0080f0;" vertex="1" parent="1">
          <mxGeometry x="210" y="1246" width="12" height="6" as="geometry" />
        </mxCell>
        <mxCell id="Jp8yfKyTnRDQH-Kfa9AB-402" value="Tenant" style="text;html=1;align=center;verticalAlign=middle;whiteSpace=wrap;rounded=0;" vertex="1" parent="1">
          <mxGeometry x="239" y="1213" width="60" height="30" as="geometry" />
        </mxCell>
        <mxCell id="Jp8yfKyTnRDQH-Kfa9AB-403" value="" style="html=1;verticalLabelPosition=bottom;labelBackgroundColor=#ffffff;verticalAlign=top;shadow=0;dashed=0;strokeWidth=2;shape=mxgraph.ios7.misc.down;strokeColor=#0080f0;" vertex="1" parent="1">
          <mxGeometry x="369" y="1246" width="12" height="6" as="geometry" />
        </mxCell>
        <mxCell id="Jp8yfKyTnRDQH-Kfa9AB-404" value="Country" style="text;html=1;align=center;verticalAlign=middle;whiteSpace=wrap;rounded=0;" vertex="1" parent="1">
          <mxGeometry x="402" y="1213" width="60" height="30" as="geometry" />
        </mxCell>
        <mxCell id="Jp8yfKyTnRDQH-Kfa9AB-405" value="Mexico" style="rounded=1;whiteSpace=wrap;html=1;" vertex="1" parent="1">
          <mxGeometry x="410" y="1238" width="146" height="22" as="geometry" />
        </mxCell>
        <mxCell id="Jp8yfKyTnRDQH-Kfa9AB-406" value="" style="html=1;verticalLabelPosition=bottom;labelBackgroundColor=#ffffff;verticalAlign=top;shadow=0;dashed=0;strokeWidth=2;shape=mxgraph.ios7.misc.down;strokeColor=#0080f0;" vertex="1" parent="1">
          <mxGeometry x="533" y="1246" width="12" height="6" as="geometry" />
        </mxCell>
        <mxCell id="Jp8yfKyTnRDQH-Kfa9AB-407" value="&lt;font style=&quot;font-size: 18px;&quot;&gt;Something went wrong&lt;/font&gt;" style="text;html=1;align=center;verticalAlign=middle;whiteSpace=wrap;rounded=0;" vertex="1" parent="1">
          <mxGeometry x="255" y="1350" width="202" height="24" as="geometry" />
        </mxCell>
        <mxCell id="Jp8yfKyTnRDQH-Kfa9AB-408" value="Something happened during data ingestions&lt;br&gt;Error 5XX" style="rounded=1;whiteSpace=wrap;html=1;" vertex="1" parent="1">
          <mxGeometry x="583.25" y="1387" width="148" height="62" as="geometry" />
        </mxCell>
        <mxCell id="Jp8yfKyTnRDQH-Kfa9AB-409" value="" style="group" vertex="1" connectable="0" parent="1">
          <mxGeometry x="173.25" y="1279" width="403.5" height="50.5" as="geometry" />
        </mxCell>
        <mxCell id="Jp8yfKyTnRDQH-Kfa9AB-410" value="" style="ellipse;whiteSpace=wrap;html=1;aspect=fixed;fillColor=#f5f5f5;fontColor=#333333;strokeColor=#666666;" vertex="1" parent="Jp8yfKyTnRDQH-Kfa9AB-409">
          <mxGeometry x="78.75" y="28" width="11" height="11" as="geometry" />
        </mxCell>
        <mxCell id="Jp8yfKyTnRDQH-Kfa9AB-411" style="edgeStyle=orthogonalEdgeStyle;rounded=0;orthogonalLoop=1;jettySize=auto;html=1;exitX=1;exitY=0.5;exitDx=0;exitDy=0;entryX=0;entryY=0.5;entryDx=0;entryDy=0;" edge="1" parent="Jp8yfKyTnRDQH-Kfa9AB-409" source="Jp8yfKyTnRDQH-Kfa9AB-412" target="Jp8yfKyTnRDQH-Kfa9AB-417">
          <mxGeometry relative="1" as="geometry" />
        </mxCell>
        <mxCell id="Jp8yfKyTnRDQH-Kfa9AB-412" value="" style="ellipse;whiteSpace=wrap;html=1;aspect=fixed;fillColor=#f5f5f5;fontColor=#333333;strokeColor=#666666;" vertex="1" parent="Jp8yfKyTnRDQH-Kfa9AB-409">
          <mxGeometry x="159.75" y="26" width="16" height="16" as="geometry" />
        </mxCell>
        <mxCell id="Jp8yfKyTnRDQH-Kfa9AB-413" value="" style="ellipse;whiteSpace=wrap;html=1;aspect=fixed;fillColor=#f5f5f5;fontColor=#333333;strokeColor=#666666;" vertex="1" parent="Jp8yfKyTnRDQH-Kfa9AB-409">
          <mxGeometry x="309.5" y="28" width="16" height="16" as="geometry" />
        </mxCell>
        <mxCell id="Jp8yfKyTnRDQH-Kfa9AB-414" value="" style="endArrow=none;html=1;rounded=0;" edge="1" parent="Jp8yfKyTnRDQH-Kfa9AB-409" source="Jp8yfKyTnRDQH-Kfa9AB-417">
          <mxGeometry width="50" height="50" relative="1" as="geometry">
            <mxPoint x="176.49991319626974" y="35.9498272899782" as="sourcePoint" />
            <mxPoint x="403.5" y="35" as="targetPoint" />
          </mxGeometry>
        </mxCell>
        <mxCell id="Jp8yfKyTnRDQH-Kfa9AB-415" value="&lt;font style=&quot;font-size: 18px;&quot;&gt;Process File&lt;/font&gt;" style="text;html=1;align=center;verticalAlign=middle;whiteSpace=wrap;rounded=0;" vertex="1" parent="Jp8yfKyTnRDQH-Kfa9AB-409">
          <mxGeometry x="168.5" width="157" height="14" as="geometry" />
        </mxCell>
        <mxCell id="Jp8yfKyTnRDQH-Kfa9AB-416" value="" style="endArrow=none;html=1;rounded=0;entryX=0;entryY=0.5;entryDx=0;entryDy=0;exitX=1;exitY=0.5;exitDx=0;exitDy=0;" edge="1" parent="Jp8yfKyTnRDQH-Kfa9AB-409" source="Jp8yfKyTnRDQH-Kfa9AB-410" target="Jp8yfKyTnRDQH-Kfa9AB-412">
          <mxGeometry width="50" height="50" relative="1" as="geometry">
            <mxPoint x="96.5" y="35.33000000000004" as="sourcePoint" />
            <mxPoint x="147.5000000000034" y="36" as="targetPoint" />
          </mxGeometry>
        </mxCell>
        <mxCell id="Jp8yfKyTnRDQH-Kfa9AB-417" value="3" style="ellipse;whiteSpace=wrap;html=1;aspect=fixed;" vertex="1" parent="Jp8yfKyTnRDQH-Kfa9AB-409">
          <mxGeometry x="235.5" y="19.5" width="29" height="29" as="geometry" />
        </mxCell>
        <mxCell id="Jp8yfKyTnRDQH-Kfa9AB-421" value="" style="html=1;verticalLabelPosition=bottom;labelBackgroundColor=#ffffff;verticalAlign=top;shadow=0;dashed=0;strokeWidth=2;shape=mxgraph.ios7.misc.delete;fillColor=#ff0000;strokeColor=#ffffff;sketch=0;" vertex="1" parent="1">
          <mxGeometry x="346" y="1384" width="60" height="58" as="geometry" />
        </mxCell>
        <mxCell id="Jp8yfKyTnRDQH-Kfa9AB-423" value="Try again" style="rounded=1;whiteSpace=wrap;html=1;" vertex="1" parent="1">
          <mxGeometry x="390" y="1464" width="98" height="21" as="geometry" />
        </mxCell>
        <mxCell id="Jp8yfKyTnRDQH-Kfa9AB-424" value="" style="verticalLabelPosition=bottom;verticalAlign=top;html=1;shape=mxgraph.basic.rect;fillColor2=none;strokeWidth=1;size=20;indent=5;" vertex="1" parent="1">
          <mxGeometry x="40" y="1613" width="767" height="394" as="geometry" />
        </mxCell>
        <mxCell id="Jp8yfKyTnRDQH-Kfa9AB-425" value="" style="verticalLabelPosition=bottom;verticalAlign=top;html=1;shape=mxgraph.basic.rect;fillColor2=none;strokeWidth=1;size=20;indent=5;" vertex="1" parent="1">
          <mxGeometry x="57" y="1626" width="738" height="18" as="geometry" />
        </mxCell>
        <mxCell id="Jp8yfKyTnRDQH-Kfa9AB-426" value="cockpit.juntos.com" style="text;html=1;align=center;verticalAlign=middle;resizable=0;points=[];autosize=1;strokeColor=none;fillColor=none;" vertex="1" parent="1">
          <mxGeometry x="54" y="1622" width="117" height="26" as="geometry" />
        </mxCell>
        <mxCell id="Jp8yfKyTnRDQH-Kfa9AB-427" value="" style="rounded=0;whiteSpace=wrap;html=1;" vertex="1" parent="1">
          <mxGeometry x="59" y="1651" width="19" height="337" as="geometry" />
        </mxCell>
        <mxCell id="Jp8yfKyTnRDQH-Kfa9AB-428" value="&lt;h1 style=&quot;margin-top: 0px;&quot;&gt;Bulk Uploads&lt;/h1&gt;" style="text;html=1;whiteSpace=wrap;overflow=hidden;rounded=0;" vertex="1" parent="1">
          <mxGeometry x="91" y="1654" width="180" height="41" as="geometry" />
        </mxCell>
        <mxCell id="Jp8yfKyTnRDQH-Kfa9AB-429" value="" style="edgeStyle=orthogonalEdgeStyle;rounded=0;orthogonalLoop=1;jettySize=auto;html=1;" edge="1" parent="1" source="Jp8yfKyTnRDQH-Kfa9AB-430" target="Jp8yfKyTnRDQH-Kfa9AB-441">
          <mxGeometry relative="1" as="geometry" />
        </mxCell>
        <mxCell id="Jp8yfKyTnRDQH-Kfa9AB-430" value="" style="rounded=1;whiteSpace=wrap;html=1;" vertex="1" parent="1">
          <mxGeometry x="259.5" y="1817.5" width="259" height="157" as="geometry" />
        </mxCell>
        <mxCell id="Jp8yfKyTnRDQH-Kfa9AB-431" value="Products" style="rounded=1;whiteSpace=wrap;html=1;" vertex="1" parent="1">
          <mxGeometry x="99" y="1717" width="146" height="22" as="geometry" />
        </mxCell>
        <mxCell id="Jp8yfKyTnRDQH-Kfa9AB-432" value="Advisor" style="rounded=1;whiteSpace=wrap;html=1;" vertex="1" parent="1">
          <mxGeometry x="255" y="1717" width="146" height="22" as="geometry" />
        </mxCell>
        <mxCell id="Jp8yfKyTnRDQH-Kfa9AB-433" value="Entity" style="text;html=1;align=center;verticalAlign=middle;whiteSpace=wrap;rounded=0;" vertex="1" parent="1">
          <mxGeometry x="91" y="1692" width="60" height="30" as="geometry" />
        </mxCell>
        <mxCell id="Jp8yfKyTnRDQH-Kfa9AB-434" value="" style="html=1;verticalLabelPosition=bottom;labelBackgroundColor=#ffffff;verticalAlign=top;shadow=0;dashed=0;strokeWidth=2;shape=mxgraph.ios7.misc.down;strokeColor=#0080f0;" vertex="1" parent="1">
          <mxGeometry x="224" y="1725" width="12" height="6" as="geometry" />
        </mxCell>
        <mxCell id="Jp8yfKyTnRDQH-Kfa9AB-435" value="Tenant" style="text;html=1;align=center;verticalAlign=middle;whiteSpace=wrap;rounded=0;" vertex="1" parent="1">
          <mxGeometry x="253" y="1692" width="60" height="30" as="geometry" />
        </mxCell>
        <mxCell id="Jp8yfKyTnRDQH-Kfa9AB-436" value="" style="html=1;verticalLabelPosition=bottom;labelBackgroundColor=#ffffff;verticalAlign=top;shadow=0;dashed=0;strokeWidth=2;shape=mxgraph.ios7.misc.down;strokeColor=#0080f0;" vertex="1" parent="1">
          <mxGeometry x="383" y="1725" width="12" height="6" as="geometry" />
        </mxCell>
        <mxCell id="Jp8yfKyTnRDQH-Kfa9AB-437" value="Country" style="text;html=1;align=center;verticalAlign=middle;whiteSpace=wrap;rounded=0;" vertex="1" parent="1">
          <mxGeometry x="416" y="1692" width="60" height="30" as="geometry" />
        </mxCell>
        <mxCell id="Jp8yfKyTnRDQH-Kfa9AB-438" value="Mexico" style="rounded=1;whiteSpace=wrap;html=1;" vertex="1" parent="1">
          <mxGeometry x="424" y="1717" width="146" height="22" as="geometry" />
        </mxCell>
        <mxCell id="Jp8yfKyTnRDQH-Kfa9AB-439" value="" style="html=1;verticalLabelPosition=bottom;labelBackgroundColor=#ffffff;verticalAlign=top;shadow=0;dashed=0;strokeWidth=2;shape=mxgraph.ios7.misc.down;strokeColor=#0080f0;" vertex="1" parent="1">
          <mxGeometry x="547" y="1725" width="12" height="6" as="geometry" />
        </mxCell>
        <mxCell id="Jp8yfKyTnRDQH-Kfa9AB-441" value="Generated CSV with lines with sucess and lines with error" style="rounded=1;whiteSpace=wrap;html=1;" vertex="1" parent="1">
          <mxGeometry x="590.75" y="1865.5" width="148" height="61" as="geometry" />
        </mxCell>
        <mxCell id="Jp8yfKyTnRDQH-Kfa9AB-442" value="" style="group" vertex="1" connectable="0" parent="1">
          <mxGeometry x="187.25" y="1758" width="403.5" height="50.5" as="geometry" />
        </mxCell>
        <mxCell id="Jp8yfKyTnRDQH-Kfa9AB-443" value="" style="ellipse;whiteSpace=wrap;html=1;aspect=fixed;fillColor=#f5f5f5;fontColor=#333333;strokeColor=#666666;" vertex="1" parent="Jp8yfKyTnRDQH-Kfa9AB-442">
          <mxGeometry x="78.75" y="28" width="11" height="11" as="geometry" />
        </mxCell>
        <mxCell id="Jp8yfKyTnRDQH-Kfa9AB-444" value="" style="ellipse;whiteSpace=wrap;html=1;aspect=fixed;fillColor=#f5f5f5;fontColor=#333333;strokeColor=#666666;" vertex="1" parent="Jp8yfKyTnRDQH-Kfa9AB-442">
          <mxGeometry x="159.75" y="26" width="16" height="16" as="geometry" />
        </mxCell>
        <mxCell id="Jp8yfKyTnRDQH-Kfa9AB-445" value="" style="endArrow=none;html=1;rounded=0;" edge="1" parent="Jp8yfKyTnRDQH-Kfa9AB-442" source="Jp8yfKyTnRDQH-Kfa9AB-448">
          <mxGeometry width="50" height="50" relative="1" as="geometry">
            <mxPoint x="176.49991319626974" y="35.9498272899782" as="sourcePoint" />
            <mxPoint x="403.5" y="35" as="targetPoint" />
          </mxGeometry>
        </mxCell>
        <mxCell id="Jp8yfKyTnRDQH-Kfa9AB-446" value="&lt;font style=&quot;font-size: 18px;&quot;&gt;Results&lt;/font&gt;" style="text;html=1;align=center;verticalAlign=middle;whiteSpace=wrap;rounded=0;" vertex="1" parent="Jp8yfKyTnRDQH-Kfa9AB-442">
          <mxGeometry x="239" width="157" height="14" as="geometry" />
        </mxCell>
        <mxCell id="Jp8yfKyTnRDQH-Kfa9AB-447" value="" style="endArrow=none;html=1;rounded=0;entryX=0;entryY=0.5;entryDx=0;entryDy=0;exitX=1;exitY=0.5;exitDx=0;exitDy=0;" edge="1" parent="Jp8yfKyTnRDQH-Kfa9AB-442" source="Jp8yfKyTnRDQH-Kfa9AB-443" target="Jp8yfKyTnRDQH-Kfa9AB-444">
          <mxGeometry width="50" height="50" relative="1" as="geometry">
            <mxPoint x="96.5" y="35.33000000000004" as="sourcePoint" />
            <mxPoint x="147.5000000000034" y="36" as="targetPoint" />
          </mxGeometry>
        </mxCell>
        <mxCell id="Jp8yfKyTnRDQH-Kfa9AB-448" value="&lt;span style=&quot;color: rgba(0, 0, 0, 0); font-family: monospace; font-size: 0px; text-align: start; text-wrap-mode: nowrap;&quot;&gt;4&lt;/span&gt;" style="ellipse;whiteSpace=wrap;html=1;aspect=fixed;" vertex="1" parent="Jp8yfKyTnRDQH-Kfa9AB-442">
          <mxGeometry x="306.25" y="19.5" width="29" height="29" as="geometry" />
        </mxCell>
        <mxCell id="Jp8yfKyTnRDQH-Kfa9AB-449" value="" style="ellipse;whiteSpace=wrap;html=1;aspect=fixed;fillColor=#f5f5f5;fontColor=#333333;strokeColor=#666666;" vertex="1" parent="Jp8yfKyTnRDQH-Kfa9AB-442">
          <mxGeometry x="233.75" y="25.5" width="16" height="16" as="geometry" />
        </mxCell>
        <mxCell id="Jp8yfKyTnRDQH-Kfa9AB-450" value="" style="endArrow=none;html=1;rounded=0;entryX=0;entryY=0.5;entryDx=0;entryDy=0;" edge="1" parent="Jp8yfKyTnRDQH-Kfa9AB-442" source="Jp8yfKyTnRDQH-Kfa9AB-444" target="Jp8yfKyTnRDQH-Kfa9AB-448">
          <mxGeometry width="50" height="50" relative="1" as="geometry">
            <mxPoint x="453.25" y="108" as="sourcePoint" />
            <mxPoint x="503.25" y="58" as="targetPoint" />
          </mxGeometry>
        </mxCell>
        <mxCell id="Jp8yfKyTnRDQH-Kfa9AB-452" value="&lt;font&gt;&lt;u style=&quot;&quot;&gt;Download results&lt;/u&gt;&lt;/font&gt;" style="text;html=1;align=center;verticalAlign=middle;whiteSpace=wrap;rounded=0;" vertex="1" parent="1">
          <mxGeometry x="311.5" y="1940" width="162" height="18" as="geometry" />
        </mxCell>
        <mxCell id="Jp8yfKyTnRDQH-Kfa9AB-454" value="" style="html=1;verticalLabelPosition=bottom;labelBackgroundColor=#ffffff;verticalAlign=top;shadow=0;dashed=0;strokeWidth=2;shape=mxgraph.ios7.misc.pause;strokeColor=#0080f0;sketch=0;" vertex="1" parent="1">
          <mxGeometry x="357.25" y="1870" width="70.5" height="70" as="geometry" />
        </mxCell>
        <mxCell id="Jp8yfKyTnRDQH-Kfa9AB-455" value="&lt;font style=&quot;forced-color-adjust: none; color: rgb(0, 0, 0); font-family: Helvetica; font-style: normal; font-variant-ligatures: normal; font-variant-caps: normal; font-weight: 400; letter-spacing: normal; orphans: 2; text-align: left; text-indent: 0px; text-transform: none; widows: 2; word-spacing: 0px; -webkit-text-stroke-width: 0px; white-space: normal; background-color: rgb(236, 236, 236); text-decoration-thickness: initial; text-decoration-style: initial; text-decoration-color: initial; font-size: 16px;&quot;&gt;File processed with error&lt;/font&gt;&lt;div style=&quot;forced-color-adjust: none; color: rgb(0, 0, 0); font-family: Helvetica; font-size: 12px; font-style: normal; font-variant-ligatures: normal; font-variant-caps: normal; font-weight: 400; letter-spacing: normal; orphans: 2; text-align: left; text-indent: 0px; text-transform: none; widows: 2; word-spacing: 0px; -webkit-text-stroke-width: 0px; white-space: normal; background-color: rgb(236, 236, 236); text-decoration-thickness: initial; text-decoration-style: initial; text-decoration-color: initial;&quot;&gt;&lt;font style=&quot;forced-color-adjust: none; font-size: 11px;&quot;&gt;Please check the results below&lt;/font&gt;&lt;/div&gt;" style="text;whiteSpace=wrap;html=1;" vertex="1" parent="1">
          <mxGeometry x="270" y="1824" width="209" height="56" as="geometry" />
        </mxCell>
        <mxCell id="Jp8yfKyTnRDQH-Kfa9AB-546" value="" style="verticalLabelPosition=bottom;verticalAlign=top;html=1;shape=mxgraph.basic.rect;fillColor2=none;strokeWidth=1;size=20;indent=5;" vertex="1" parent="1">
          <mxGeometry x="869.5" y="1607" width="767" height="394" as="geometry" />
        </mxCell>
        <mxCell id="Jp8yfKyTnRDQH-Kfa9AB-547" value="" style="verticalLabelPosition=bottom;verticalAlign=top;html=1;shape=mxgraph.basic.rect;fillColor2=none;strokeWidth=1;size=20;indent=5;" vertex="1" parent="1">
          <mxGeometry x="886.5" y="1620" width="738" height="18" as="geometry" />
        </mxCell>
        <mxCell id="Jp8yfKyTnRDQH-Kfa9AB-548" value="cockpit.juntos.com" style="text;html=1;align=center;verticalAlign=middle;resizable=0;points=[];autosize=1;strokeColor=none;fillColor=none;" vertex="1" parent="1">
          <mxGeometry x="883.5" y="1616" width="117" height="26" as="geometry" />
        </mxCell>
        <mxCell id="Jp8yfKyTnRDQH-Kfa9AB-549" value="" style="rounded=0;whiteSpace=wrap;html=1;" vertex="1" parent="1">
          <mxGeometry x="888.5" y="1645" width="19" height="337" as="geometry" />
        </mxCell>
        <mxCell id="Jp8yfKyTnRDQH-Kfa9AB-550" value="&lt;h1 style=&quot;margin-top: 0px;&quot;&gt;Bulk Uploads&lt;/h1&gt;" style="text;html=1;whiteSpace=wrap;overflow=hidden;rounded=0;" vertex="1" parent="1">
          <mxGeometry x="920.5" y="1648" width="180" height="41" as="geometry" />
        </mxCell>
        <mxCell id="Jp8yfKyTnRDQH-Kfa9AB-551" value="" style="edgeStyle=orthogonalEdgeStyle;rounded=0;orthogonalLoop=1;jettySize=auto;html=1;" edge="1" parent="1" source="Jp8yfKyTnRDQH-Kfa9AB-552" target="Jp8yfKyTnRDQH-Kfa9AB-562">
          <mxGeometry relative="1" as="geometry" />
        </mxCell>
        <mxCell id="Jp8yfKyTnRDQH-Kfa9AB-552" value="" style="rounded=1;whiteSpace=wrap;html=1;" vertex="1" parent="1">
          <mxGeometry x="1089" y="1811.5" width="259" height="157" as="geometry" />
        </mxCell>
        <mxCell id="Jp8yfKyTnRDQH-Kfa9AB-553" value="Products" style="rounded=1;whiteSpace=wrap;html=1;" vertex="1" parent="1">
          <mxGeometry x="928.5" y="1711" width="146" height="22" as="geometry" />
        </mxCell>
        <mxCell id="Jp8yfKyTnRDQH-Kfa9AB-554" value="Advisor" style="rounded=1;whiteSpace=wrap;html=1;" vertex="1" parent="1">
          <mxGeometry x="1084.5" y="1711" width="146" height="22" as="geometry" />
        </mxCell>
        <mxCell id="Jp8yfKyTnRDQH-Kfa9AB-555" value="Entity" style="text;html=1;align=center;verticalAlign=middle;whiteSpace=wrap;rounded=0;" vertex="1" parent="1">
          <mxGeometry x="920.5" y="1686" width="60" height="30" as="geometry" />
        </mxCell>
        <mxCell id="Jp8yfKyTnRDQH-Kfa9AB-556" value="" style="html=1;verticalLabelPosition=bottom;labelBackgroundColor=#ffffff;verticalAlign=top;shadow=0;dashed=0;strokeWidth=2;shape=mxgraph.ios7.misc.down;strokeColor=#0080f0;" vertex="1" parent="1">
          <mxGeometry x="1053.5" y="1719" width="12" height="6" as="geometry" />
        </mxCell>
        <mxCell id="Jp8yfKyTnRDQH-Kfa9AB-557" value="Tenant" style="text;html=1;align=center;verticalAlign=middle;whiteSpace=wrap;rounded=0;" vertex="1" parent="1">
          <mxGeometry x="1082.5" y="1686" width="60" height="30" as="geometry" />
        </mxCell>
        <mxCell id="Jp8yfKyTnRDQH-Kfa9AB-558" value="" style="html=1;verticalLabelPosition=bottom;labelBackgroundColor=#ffffff;verticalAlign=top;shadow=0;dashed=0;strokeWidth=2;shape=mxgraph.ios7.misc.down;strokeColor=#0080f0;" vertex="1" parent="1">
          <mxGeometry x="1212.5" y="1719" width="12" height="6" as="geometry" />
        </mxCell>
        <mxCell id="Jp8yfKyTnRDQH-Kfa9AB-559" value="Country" style="text;html=1;align=center;verticalAlign=middle;whiteSpace=wrap;rounded=0;" vertex="1" parent="1">
          <mxGeometry x="1245.5" y="1686" width="60" height="30" as="geometry" />
        </mxCell>
        <mxCell id="Jp8yfKyTnRDQH-Kfa9AB-560" value="Mexico" style="rounded=1;whiteSpace=wrap;html=1;" vertex="1" parent="1">
          <mxGeometry x="1253.5" y="1711" width="146" height="22" as="geometry" />
        </mxCell>
        <mxCell id="Jp8yfKyTnRDQH-Kfa9AB-561" value="" style="html=1;verticalLabelPosition=bottom;labelBackgroundColor=#ffffff;verticalAlign=top;shadow=0;dashed=0;strokeWidth=2;shape=mxgraph.ios7.misc.down;strokeColor=#0080f0;" vertex="1" parent="1">
          <mxGeometry x="1376.5" y="1719" width="12" height="6" as="geometry" />
        </mxCell>
        <mxCell id="Jp8yfKyTnRDQH-Kfa9AB-562" value="Generated CSV with all lines with error" style="rounded=1;whiteSpace=wrap;html=1;" vertex="1" parent="1">
          <mxGeometry x="1420.25" y="1859.5" width="148" height="61" as="geometry" />
        </mxCell>
        <mxCell id="Jp8yfKyTnRDQH-Kfa9AB-563" value="" style="group" vertex="1" connectable="0" parent="1">
          <mxGeometry x="1016.75" y="1752" width="403.5" height="50.5" as="geometry" />
        </mxCell>
        <mxCell id="Jp8yfKyTnRDQH-Kfa9AB-564" value="" style="ellipse;whiteSpace=wrap;html=1;aspect=fixed;fillColor=#f5f5f5;fontColor=#333333;strokeColor=#666666;" vertex="1" parent="Jp8yfKyTnRDQH-Kfa9AB-563">
          <mxGeometry x="78.75" y="28" width="11" height="11" as="geometry" />
        </mxCell>
        <mxCell id="Jp8yfKyTnRDQH-Kfa9AB-565" value="" style="ellipse;whiteSpace=wrap;html=1;aspect=fixed;fillColor=#f5f5f5;fontColor=#333333;strokeColor=#666666;" vertex="1" parent="Jp8yfKyTnRDQH-Kfa9AB-563">
          <mxGeometry x="159.75" y="26" width="16" height="16" as="geometry" />
        </mxCell>
        <mxCell id="Jp8yfKyTnRDQH-Kfa9AB-566" value="" style="endArrow=none;html=1;rounded=0;" edge="1" parent="Jp8yfKyTnRDQH-Kfa9AB-563" source="Jp8yfKyTnRDQH-Kfa9AB-569">
          <mxGeometry width="50" height="50" relative="1" as="geometry">
            <mxPoint x="176.49991319626974" y="35.9498272899782" as="sourcePoint" />
            <mxPoint x="403.5" y="35" as="targetPoint" />
          </mxGeometry>
        </mxCell>
        <mxCell id="Jp8yfKyTnRDQH-Kfa9AB-567" value="&lt;font style=&quot;font-size: 18px;&quot;&gt;Results&lt;/font&gt;" style="text;html=1;align=center;verticalAlign=middle;whiteSpace=wrap;rounded=0;" vertex="1" parent="Jp8yfKyTnRDQH-Kfa9AB-563">
          <mxGeometry x="239" width="157" height="14" as="geometry" />
        </mxCell>
        <mxCell id="Jp8yfKyTnRDQH-Kfa9AB-568" value="" style="endArrow=none;html=1;rounded=0;entryX=0;entryY=0.5;entryDx=0;entryDy=0;exitX=1;exitY=0.5;exitDx=0;exitDy=0;" edge="1" parent="Jp8yfKyTnRDQH-Kfa9AB-563" source="Jp8yfKyTnRDQH-Kfa9AB-564" target="Jp8yfKyTnRDQH-Kfa9AB-565">
          <mxGeometry width="50" height="50" relative="1" as="geometry">
            <mxPoint x="96.5" y="35.33000000000004" as="sourcePoint" />
            <mxPoint x="147.5000000000034" y="36" as="targetPoint" />
          </mxGeometry>
        </mxCell>
        <mxCell id="Jp8yfKyTnRDQH-Kfa9AB-569" value="&lt;span style=&quot;color: rgba(0, 0, 0, 0); font-family: monospace; font-size: 0px; text-align: start; text-wrap-mode: nowrap;&quot;&gt;4&lt;/span&gt;" style="ellipse;whiteSpace=wrap;html=1;aspect=fixed;" vertex="1" parent="Jp8yfKyTnRDQH-Kfa9AB-563">
          <mxGeometry x="306.25" y="19.5" width="29" height="29" as="geometry" />
        </mxCell>
        <mxCell id="Jp8yfKyTnRDQH-Kfa9AB-570" value="" style="ellipse;whiteSpace=wrap;html=1;aspect=fixed;fillColor=#f5f5f5;fontColor=#333333;strokeColor=#666666;" vertex="1" parent="Jp8yfKyTnRDQH-Kfa9AB-563">
          <mxGeometry x="233.75" y="25.5" width="16" height="16" as="geometry" />
        </mxCell>
        <mxCell id="Jp8yfKyTnRDQH-Kfa9AB-571" value="" style="endArrow=none;html=1;rounded=0;entryX=0;entryY=0.5;entryDx=0;entryDy=0;" edge="1" parent="Jp8yfKyTnRDQH-Kfa9AB-563" source="Jp8yfKyTnRDQH-Kfa9AB-565" target="Jp8yfKyTnRDQH-Kfa9AB-569">
          <mxGeometry width="50" height="50" relative="1" as="geometry">
            <mxPoint x="453.25" y="108" as="sourcePoint" />
            <mxPoint x="503.25" y="58" as="targetPoint" />
          </mxGeometry>
        </mxCell>
        <mxCell id="Jp8yfKyTnRDQH-Kfa9AB-572" value="&lt;font&gt;&lt;u style=&quot;&quot;&gt;Download results&lt;/u&gt;&lt;/font&gt;" style="text;html=1;align=center;verticalAlign=middle;whiteSpace=wrap;rounded=0;" vertex="1" parent="1">
          <mxGeometry x="1141" y="1934" width="162" height="18" as="geometry" />
        </mxCell>
        <mxCell id="Jp8yfKyTnRDQH-Kfa9AB-574" value="&lt;span style=&quot;font-size: 16px;&quot;&gt;File error&lt;/span&gt;&lt;br&gt;&lt;div style=&quot;forced-color-adjust: none; color: rgb(0, 0, 0); font-family: Helvetica; font-size: 12px; font-style: normal; font-variant-ligatures: normal; font-variant-caps: normal; font-weight: 400; letter-spacing: normal; orphans: 2; text-align: left; text-indent: 0px; text-transform: none; widows: 2; word-spacing: 0px; -webkit-text-stroke-width: 0px; white-space: normal; background-color: rgb(236, 236, 236); text-decoration-thickness: initial; text-decoration-style: initial; text-decoration-color: initial;&quot;&gt;&lt;font style=&quot;forced-color-adjust: none; font-size: 11px;&quot;&gt;Please check the results below and try again&lt;/font&gt;&lt;/div&gt;" style="text;whiteSpace=wrap;html=1;" vertex="1" parent="1">
          <mxGeometry x="1099.5" y="1818" width="242.5" height="56" as="geometry" />
        </mxCell>
        <mxCell id="Jp8yfKyTnRDQH-Kfa9AB-575" value="" style="html=1;verticalLabelPosition=bottom;labelBackgroundColor=#ffffff;verticalAlign=top;shadow=0;dashed=0;strokeWidth=2;shape=mxgraph.ios7.misc.delete;fillColor=#ff0000;strokeColor=#ffffff;sketch=0;" vertex="1" parent="1">
          <mxGeometry x="1188.5" y="1870" width="60" height="58" as="geometry" />
        </mxCell>
      </root>
    </mxGraphModel>
  </diagram>
</mxfile>
